<svg width="1080" height="113" viewBox="0 0 1080 113" fill="none" xmlns="http://www.w3.org/2000/svg">
<rect width="1080" height="113" rx="15" fill="#0C1016"/>
<path d="M36.8636 60V57.375L48.7955 40.2614H36.7955V36.7273H54.0227V39.3523L42.1023 56.4659H54.0909V60H36.8636ZM64.2119 60.3409C62.4619 60.3409 60.9505 59.9773 59.6778 59.25C58.4127 58.5152 57.4392 57.4773 56.7574 56.1364C56.0755 54.7879 55.7346 53.2008 55.7346 51.375C55.7346 49.5795 56.0755 48.0038 56.7574 46.6477C57.4468 45.2841 58.4089 44.2235 59.6437 43.4659C60.8786 42.7008 62.3293 42.3182 63.996 42.3182C65.0718 42.3182 66.0869 42.4924 67.0415 42.8409C68.0036 43.1818 68.8521 43.7121 69.5869 44.4318C70.3293 45.1515 70.9127 46.0682 71.3369 47.1818C71.7612 48.2879 71.9733 49.6061 71.9733 51.1364V52.3977H57.6665V49.625H68.0301C68.0225 48.8371 67.8521 48.1364 67.5187 47.5227C67.1854 46.9015 66.7195 46.4129 66.121 46.0568C65.5301 45.7008 64.8407 45.5227 64.0528 45.5227C63.2119 45.5227 62.4733 45.7273 61.8369 46.1364C61.2005 46.5379 60.7043 47.0682 60.3483 47.7273C59.9998 48.3788 59.8218 49.0947 59.8142 49.875V52.2955C59.8142 53.3106 59.9998 54.1818 60.371 54.9091C60.7422 55.6288 61.2612 56.1818 61.9278 56.5682C62.5945 56.947 63.3748 57.1364 64.2687 57.1364C64.8672 57.1364 65.4089 57.053 65.8937 56.8864C66.3786 56.7121 66.799 56.4583 67.1551 56.125C67.5112 55.7917 67.7801 55.3788 67.9619 54.8864L71.8028 55.3182C71.5604 56.3333 71.0983 57.2197 70.4165 57.9773C69.7422 58.7273 68.8786 59.3106 67.8255 59.7273C66.7725 60.1364 65.568 60.3409 64.2119 60.3409ZM73.9494 66.5455V42.5455H77.9948V45.4318H78.2335C78.4456 45.0076 78.7448 44.5568 79.1312 44.0795C79.5176 43.5947 80.0403 43.1818 80.6994 42.8409C81.3585 42.4924 82.1994 42.3182 83.2221 42.3182C84.5706 42.3182 85.7865 42.6629 86.8698 43.3523C87.9608 44.0341 88.8244 45.0455 89.4608 46.3864C90.1047 47.7197 90.4267 49.3561 90.4267 51.2955C90.4267 53.2121 90.1123 54.8409 89.4835 56.1818C88.8547 57.5227 87.9986 58.5455 86.9153 59.25C85.832 59.9545 84.6047 60.3068 83.2335 60.3068C82.2335 60.3068 81.4039 60.1402 80.7448 59.8068C80.0858 59.4735 79.5554 59.072 79.1539 58.6023C78.76 58.125 78.4532 57.6742 78.2335 57.25H78.063V66.5455H73.9494ZM77.9835 51.2727C77.9835 52.4015 78.1426 53.3902 78.4608 54.2386C78.7865 55.0871 79.2524 55.75 79.8585 56.2273C80.4721 56.697 81.2145 56.9318 82.0858 56.9318C82.9948 56.9318 83.7562 56.6894 84.3698 56.2045C84.9835 55.7121 85.4456 55.0417 85.7562 54.1932C86.0744 53.3371 86.2335 52.3636 86.2335 51.2727C86.2335 50.1894 86.0782 49.2273 85.7676 48.3864C85.457 47.5455 84.9948 46.8864 84.3812 46.4091C83.7676 45.9318 83.0024 45.6932 82.0858 45.6932C81.207 45.6932 80.4608 45.9242 79.8471 46.3864C79.2335 46.8485 78.7676 47.4962 78.4494 48.3295C78.1388 49.1629 77.9835 50.1439 77.9835 51.2727ZM96.559 49.7727V60H92.4454V36.7273H96.4681V45.5114H96.6727C97.0817 44.5265 97.7143 43.75 98.5704 43.1818C99.434 42.6061 100.533 42.3182 101.866 42.3182C103.078 42.3182 104.135 42.572 105.036 43.0795C105.938 43.5871 106.635 44.3295 107.127 45.3068C107.627 46.2841 107.877 47.4773 107.877 48.8864V60H103.764V49.5227C103.764 48.3485 103.461 47.4356 102.854 46.7841C102.256 46.125 101.415 45.7955 100.332 45.7955C99.6045 45.7955 98.953 45.9545 98.3772 46.2727C97.809 46.5833 97.3621 47.0341 97.0363 47.625C96.7181 48.2159 96.559 48.9318 96.559 49.7727ZM112.498 66.5455C111.938 66.5455 111.419 66.5 110.941 66.4091C110.472 66.3258 110.097 66.2273 109.816 66.1136L110.771 62.9091C111.369 63.0833 111.904 63.1667 112.373 63.1591C112.843 63.1515 113.256 63.0038 113.612 62.7159C113.975 62.4356 114.282 61.9659 114.532 61.3068L114.885 60.3636L108.555 42.5455H112.919L116.941 55.7273H117.123L121.157 42.5455H125.532L118.544 62.1136C118.218 63.0379 117.786 63.8295 117.248 64.4886C116.71 65.1553 116.051 65.6629 115.271 66.0114C114.498 66.3674 113.574 66.5455 112.498 66.5455ZM126.875 60V42.5455H130.864V45.4545H131.045C131.364 44.447 131.909 43.6705 132.682 43.125C133.462 42.572 134.352 42.2955 135.352 42.2955C135.579 42.2955 135.833 42.3068 136.114 42.3295C136.401 42.3447 136.64 42.3712 136.829 42.4091V46.1932C136.655 46.1326 136.379 46.0795 136 46.0341C135.629 45.9811 135.269 45.9545 134.92 45.9545C134.17 45.9545 133.496 46.1174 132.898 46.4432C132.307 46.7614 131.841 47.2045 131.5 47.7727C131.159 48.3409 130.989 48.9962 130.989 49.7386V60H126.875ZM144.674 60V36.7273H148.89V47.4205H149.174L158.253 36.7273H163.401L154.401 47.1705L163.481 60H158.412L151.469 50.0227L148.89 53.0682V60H144.674ZM178.954 42.5455L172.738 60H168.192L161.977 42.5455H166.363L170.374 55.5114H170.556L174.579 42.5455H178.954ZM184.819 60.3523C183.713 60.3523 182.717 60.1553 181.83 59.7614C180.952 59.3598 180.255 58.7689 179.74 57.9886C179.232 57.2083 178.978 56.2462 178.978 55.1023C178.978 54.1174 179.16 53.303 179.524 52.6591C179.887 52.0152 180.384 51.5 181.012 51.1136C181.641 50.7273 182.349 50.4356 183.137 50.2386C183.933 50.0341 184.755 49.8864 185.603 49.7955C186.626 49.6894 187.455 49.5947 188.092 49.5114C188.728 49.4205 189.19 49.2841 189.478 49.1023C189.774 48.9129 189.921 48.6212 189.921 48.2273V48.1591C189.921 47.303 189.668 46.6402 189.16 46.1705C188.652 45.7008 187.921 45.4659 186.967 45.4659C185.959 45.4659 185.16 45.6856 184.569 46.125C183.986 46.5644 183.592 47.0833 183.387 47.6818L179.546 47.1364C179.849 46.0758 180.349 45.1894 181.046 44.4773C181.743 43.7576 182.596 43.2197 183.603 42.8636C184.611 42.5 185.724 42.3182 186.944 42.3182C187.785 42.3182 188.622 42.4167 189.455 42.6136C190.289 42.8106 191.05 43.1364 191.74 43.5909C192.429 44.0379 192.982 44.6477 193.399 45.4205C193.823 46.1932 194.035 47.1591 194.035 48.3182V60H190.08V57.6023H189.944C189.694 58.0871 189.342 58.5417 188.887 58.9659C188.44 59.3826 187.876 59.7197 187.194 59.9773C186.52 60.2273 185.728 60.3523 184.819 60.3523ZM185.887 57.3295C186.713 57.3295 187.429 57.1667 188.035 56.8409C188.641 56.5076 189.107 56.0682 189.433 55.5227C189.766 54.9773 189.933 54.3826 189.933 53.7386V51.6818C189.804 51.7879 189.584 51.8864 189.274 51.9773C188.971 52.0682 188.63 52.1477 188.251 52.2159C187.872 52.2841 187.497 52.3447 187.126 52.3977C186.755 52.4508 186.433 52.4962 186.16 52.5341C185.546 52.6174 184.997 52.7538 184.512 52.9432C184.027 53.1326 183.645 53.3977 183.365 53.7386C183.084 54.072 182.944 54.5038 182.944 55.0341C182.944 55.7917 183.221 56.3636 183.774 56.75C184.327 57.1364 185.031 57.3295 185.887 57.3295ZM200.781 49.7727V60H196.667V42.5455H200.599V45.5114H200.804C201.205 44.5341 201.845 43.7576 202.724 43.1818C203.611 42.6061 204.705 42.3182 206.008 42.3182C207.213 42.3182 208.262 42.5758 209.156 43.0909C210.058 43.6061 210.755 44.3523 211.247 45.3295C211.747 46.3068 211.993 47.4924 211.986 48.8864V60H207.872V49.5227C207.872 48.3561 207.569 47.4432 206.963 46.7841C206.364 46.125 205.535 45.7955 204.474 45.7955C203.755 45.7955 203.114 45.9545 202.554 46.2727C202.001 46.5833 201.565 47.0341 201.247 47.625C200.936 48.2159 200.781 48.9318 200.781 49.7727ZM223.379 42.5455V45.7273H213.345V42.5455H223.379ZM215.822 38.3636H219.936V54.75C219.936 55.303 220.019 55.7273 220.186 56.0227C220.36 56.3106 220.588 56.5076 220.868 56.6136C221.148 56.7197 221.459 56.7727 221.8 56.7727C222.057 56.7727 222.292 56.7538 222.504 56.7159C222.724 56.678 222.891 56.6439 223.004 56.6136L223.697 59.8295C223.478 59.9053 223.163 59.9886 222.754 60.0795C222.353 60.1705 221.86 60.2235 221.277 60.2386C220.247 60.2689 219.319 60.1136 218.493 59.7727C217.667 59.4242 217.012 58.8864 216.527 58.1591C216.05 57.4318 215.815 56.5227 215.822 55.4318V38.3636ZM236.441 52.6591V42.5455H240.554V60H236.566V56.8977H236.384C235.99 57.875 235.342 58.6742 234.441 59.2955C233.547 59.9167 232.444 60.2273 231.134 60.2273C229.99 60.2273 228.979 59.9735 228.1 59.4659C227.229 58.9508 226.547 58.2045 226.054 57.2273C225.562 56.2424 225.316 55.053 225.316 53.6591V42.5455H229.429V53.0227C229.429 54.1288 229.732 55.0076 230.338 55.6591C230.944 56.3106 231.74 56.6364 232.725 56.6364C233.331 56.6364 233.918 56.4886 234.486 56.1932C235.054 55.8977 235.52 55.4583 235.884 54.875C236.255 54.2841 236.441 53.5455 236.441 52.6591ZM243.28 60V42.5455H247.212V45.5114H247.417C247.78 44.5114 248.383 43.7311 249.224 43.1705C250.064 42.6023 251.068 42.3182 252.235 42.3182C253.417 42.3182 254.413 42.6061 255.224 43.1818C256.042 43.75 256.618 44.5265 256.951 45.5114H257.133C257.519 44.5417 258.171 43.7689 259.087 43.1932C260.011 42.6098 261.106 42.3182 262.371 42.3182C263.977 42.3182 265.288 42.8258 266.303 43.8409C267.318 44.8561 267.826 46.3371 267.826 48.2841V60H263.701V48.9205C263.701 47.8371 263.413 47.0455 262.837 46.5455C262.261 46.0379 261.557 45.7841 260.724 45.7841C259.731 45.7841 258.955 46.0947 258.394 46.7159C257.841 47.3295 257.564 48.1288 257.564 49.1136V60H253.53V48.75C253.53 47.8485 253.258 47.1288 252.712 46.5909C252.174 46.053 251.47 45.7841 250.599 45.7841C250.008 45.7841 249.47 45.9356 248.985 46.2386C248.5 46.5341 248.114 46.9545 247.826 47.5C247.538 48.0379 247.394 48.6667 247.394 49.3864V60H243.28ZM276.088 40.2614V36.7273H294.656V40.2614H287.463V60H283.281V40.2614H276.088ZM300.663 49.7727V60H296.55V36.7273H300.572V45.5114H300.777C301.186 44.5265 301.819 43.75 302.675 43.1818C303.538 42.6061 304.637 42.3182 305.97 42.3182C307.182 42.3182 308.239 42.572 309.141 43.0795C310.042 43.5871 310.739 44.3295 311.231 45.3068C311.731 46.2841 311.981 47.4773 311.981 48.8864V60H307.868V49.5227C307.868 48.3485 307.565 47.4356 306.959 46.7841C306.36 46.125 305.519 45.7955 304.436 45.7955C303.709 45.7955 303.057 45.9545 302.481 46.2727C301.913 46.5833 301.466 47.0341 301.141 47.625C300.822 48.2159 300.663 48.9318 300.663 49.7727ZM322.398 60.3409C320.648 60.3409 319.137 59.9773 317.864 59.25C316.599 58.5152 315.625 57.4773 314.943 56.1364C314.262 54.7879 313.921 53.2008 313.921 51.375C313.921 49.5795 314.262 48.0038 314.943 46.6477C315.633 45.2841 316.595 44.2235 317.83 43.4659C319.065 42.7008 320.515 42.3182 322.182 42.3182C323.258 42.3182 324.273 42.4924 325.227 42.8409C326.19 43.1818 327.038 43.7121 327.773 44.4318C328.515 45.1515 329.099 46.0682 329.523 47.1818C329.947 48.2879 330.159 49.6061 330.159 51.1364V52.3977H315.852V49.625H326.216C326.209 48.8371 326.038 48.1364 325.705 47.5227C325.371 46.9015 324.905 46.4129 324.307 46.0568C323.716 45.7008 323.027 45.5227 322.239 45.5227C321.398 45.5227 320.659 45.7273 320.023 46.1364C319.387 46.5379 318.89 47.0682 318.534 47.7273C318.186 48.3788 318.008 49.0947 318 49.875V52.2955C318 53.3106 318.186 54.1818 318.557 54.9091C318.928 55.6288 319.447 56.1818 320.114 56.5682C320.78 56.947 321.561 57.1364 322.455 57.1364C323.053 57.1364 323.595 57.053 324.08 56.8864C324.565 56.7121 324.985 56.4583 325.341 56.125C325.697 55.7917 325.966 55.3788 326.148 54.8864L329.989 55.3182C329.746 56.3333 329.284 57.2197 328.602 57.9773C327.928 58.7273 327.065 59.3106 326.012 59.7273C324.959 60.1364 323.754 60.3409 322.398 60.3409ZM332.135 60V42.5455H336.067V45.5114H336.272C336.635 44.5114 337.238 43.7311 338.079 43.1705C338.919 42.6023 339.923 42.3182 341.09 42.3182C342.272 42.3182 343.268 42.6061 344.079 43.1818C344.897 43.75 345.473 44.5265 345.806 45.5114H345.988C346.374 44.5417 347.026 43.7689 347.942 43.1932C348.866 42.6098 349.961 42.3182 351.226 42.3182C352.832 42.3182 354.143 42.8258 355.158 43.8409C356.173 44.8561 356.681 46.3371 356.681 48.2841V60H352.556V48.9205C352.556 47.8371 352.268 47.0455 351.692 46.5455C351.116 46.0379 350.412 45.7841 349.579 45.7841C348.586 45.7841 347.81 46.0947 347.249 46.7159C346.696 47.3295 346.419 48.1288 346.419 49.1136V60H342.385V48.75C342.385 47.8485 342.113 47.1288 341.567 46.5909C341.029 46.053 340.325 45.7841 339.454 45.7841C338.863 45.7841 338.325 45.9356 337.84 46.2386C337.355 46.5341 336.969 46.9545 336.681 47.5C336.393 48.0379 336.249 48.6667 336.249 49.3864V60H332.135ZM367.077 60.3409C365.327 60.3409 363.816 59.9773 362.543 59.25C361.278 58.5152 360.305 57.4773 359.623 56.1364C358.941 54.7879 358.6 53.2008 358.6 51.375C358.6 49.5795 358.941 48.0038 359.623 46.6477C360.312 45.2841 361.274 44.2235 362.509 43.4659C363.744 42.7008 365.195 42.3182 366.862 42.3182C367.937 42.3182 368.952 42.4924 369.907 42.8409C370.869 43.1818 371.718 43.7121 372.452 44.4318C373.195 45.1515 373.778 46.0682 374.202 47.1818C374.627 48.2879 374.839 49.6061 374.839 51.1364V52.3977H360.532V49.625H370.896C370.888 48.8371 370.718 48.1364 370.384 47.5227C370.051 46.9015 369.585 46.4129 368.987 46.0568C368.396 45.7008 367.706 45.5227 366.918 45.5227C366.077 45.5227 365.339 45.7273 364.702 46.1364C364.066 46.5379 363.57 47.0682 363.214 47.7273C362.865 48.3788 362.687 49.0947 362.68 49.875V52.2955C362.68 53.3106 362.865 54.1818 363.237 54.9091C363.608 55.6288 364.127 56.1818 364.793 56.5682C365.46 56.947 366.24 57.1364 367.134 57.1364C367.733 57.1364 368.274 57.053 368.759 56.8864C369.244 56.7121 369.665 56.4583 370.021 56.125C370.377 55.7917 370.646 55.3788 370.827 54.8864L374.668 55.3182C374.426 56.3333 373.964 57.2197 373.282 57.9773C372.608 58.7273 371.744 59.3106 370.691 59.7273C369.638 60.1364 368.433 60.3409 367.077 60.3409Z" fill="url(#paint0_linear_5_2)"/>
<path d="M36.4773 74.598V73.2727H43.4403V74.598H40.7429V82H39.1747V74.598H36.4773ZM43.4708 82V75.4545H44.9665V76.5455H45.0347C45.154 76.1676 45.3586 75.8764 45.6484 75.6719C45.941 75.4645 46.2748 75.3608 46.6498 75.3608C46.735 75.3608 46.8302 75.3651 46.9353 75.3736C47.0432 75.3793 47.1327 75.3892 47.2038 75.4034V76.8224C47.1384 76.7997 47.0347 76.7798 46.8927 76.7628C46.7535 76.7429 46.6185 76.733 46.4878 76.733C46.2066 76.733 45.9538 76.794 45.7293 76.9162C45.5077 77.0355 45.333 77.2017 45.2052 77.4148C45.0773 77.6278 45.0134 77.8736 45.0134 78.152V82H43.4708ZM49.4309 82.1321C49.0162 82.1321 48.6426 82.0582 48.3102 81.9105C47.9807 81.7599 47.7193 81.5384 47.5261 81.2457C47.3358 80.9531 47.2406 80.5923 47.2406 80.1634C47.2406 79.794 47.3088 79.4886 47.4452 79.2472C47.5815 79.0057 47.7676 78.8125 48.0034 78.6676C48.2392 78.5227 48.5048 78.4134 48.8003 78.3395C49.0986 78.2628 49.4068 78.2074 49.725 78.1733C50.1085 78.1335 50.4196 78.098 50.6582 78.0668C50.8969 78.0327 51.0702 77.9815 51.1781 77.9134C51.2889 77.8423 51.3443 77.733 51.3443 77.5852V77.5597C51.3443 77.2386 51.2491 76.9901 51.0588 76.8139C50.8684 76.6378 50.5943 76.5497 50.2363 76.5497C49.8585 76.5497 49.5588 76.6321 49.3372 76.7969C49.1184 76.9616 48.9707 77.1562 48.894 77.3807L47.4537 77.1761C47.5673 76.7784 47.7548 76.446 48.0162 76.179C48.2775 75.9091 48.5971 75.7074 48.975 75.5739C49.3528 75.4375 49.7704 75.3693 50.2278 75.3693C50.5432 75.3693 50.8571 75.4062 51.1696 75.4801C51.4821 75.554 51.7676 75.6761 52.0261 75.8466C52.2846 76.0142 52.492 76.2429 52.6483 76.5327C52.8074 76.8224 52.8869 77.1847 52.8869 77.6193V82H51.404V81.1009H51.3528C51.2591 81.2827 51.127 81.4531 50.9565 81.6122C50.7889 81.7685 50.5773 81.8949 50.3216 81.9915C50.0687 82.0852 49.7719 82.1321 49.4309 82.1321ZM49.8315 80.9986C50.1412 80.9986 50.4096 80.9375 50.6369 80.8153C50.8642 80.6903 51.0389 80.5256 51.1611 80.321C51.2861 80.1165 51.3486 79.8935 51.3486 79.652V78.8807C51.3003 78.9205 51.2179 78.9574 51.1014 78.9915C50.9878 79.0256 50.8599 79.0554 50.7179 79.081C50.5758 79.1065 50.4352 79.1293 50.296 79.1491C50.1568 79.169 50.0361 79.1861 49.9338 79.2003C49.7037 79.2315 49.4977 79.2827 49.3159 79.3537C49.1341 79.4247 48.9906 79.5241 48.8855 79.652C48.7804 79.777 48.7278 79.9389 48.7278 80.1378C48.7278 80.4219 48.8315 80.6364 49.0389 80.7812C49.2463 80.9261 49.5105 80.9986 49.8315 80.9986ZM55.4167 78.1648V82H53.8741V75.4545H55.3485V76.5668H55.4252C55.5758 76.2003 55.8158 75.9091 56.1454 75.6932C56.4777 75.4773 56.8883 75.3693 57.3769 75.3693C57.8286 75.3693 58.2221 75.4659 58.5573 75.6591C58.8954 75.8523 59.1567 76.1321 59.3414 76.4986C59.5289 76.8651 59.6212 77.3097 59.6184 77.8324V82H58.0758V78.071C58.0758 77.6335 57.9621 77.2912 57.7348 77.044C57.5104 76.7969 57.1993 76.6733 56.8016 76.6733C56.5317 76.6733 56.2917 76.733 56.0814 76.8523C55.8741 76.9687 55.7107 77.1378 55.5914 77.3594C55.4749 77.581 55.4167 77.8494 55.4167 78.1648ZM65.7958 77.1847L64.3896 77.3381C64.3498 77.196 64.2802 77.0625 64.1808 76.9375C64.0842 76.8125 63.9535 76.7116 63.7887 76.6349C63.624 76.5582 63.4223 76.5199 63.1836 76.5199C62.8626 76.5199 62.5927 76.5895 62.374 76.7287C62.1581 76.8679 62.0515 77.0483 62.0544 77.2699C62.0515 77.4602 62.1211 77.6151 62.2632 77.7344C62.4081 77.8537 62.6467 77.9517 62.9791 78.0284L64.0956 78.267C64.7149 78.4006 65.1751 78.6122 65.4762 78.902C65.7802 79.1918 65.9336 79.571 65.9365 80.0398C65.9336 80.4517 65.8129 80.8153 65.5743 81.1307C65.3385 81.4432 65.0103 81.6875 64.5899 81.8636C64.1694 82.0398 63.6865 82.1278 63.141 82.1278C62.3399 82.1278 61.695 81.9602 61.2064 81.625C60.7177 81.2869 60.4265 80.8168 60.3328 80.2145L61.837 80.0696C61.9052 80.3651 62.0501 80.5881 62.2717 80.7386C62.4933 80.8892 62.7816 80.9645 63.1368 80.9645C63.5032 80.9645 63.7973 80.8892 64.0189 80.7386C64.2433 80.5881 64.3555 80.402 64.3555 80.1804C64.3555 79.9929 64.2831 79.8381 64.1382 79.7159C63.9961 79.5937 63.7745 79.5 63.4734 79.4347L62.3569 79.2003C61.7291 79.0696 61.2646 78.8494 60.9635 78.5398C60.6623 78.2273 60.5132 77.8324 60.516 77.3551C60.5132 76.9517 60.6226 76.6023 60.8441 76.3068C61.0686 76.0085 61.3797 75.7784 61.7774 75.6165C62.1779 75.4517 62.6396 75.3693 63.1623 75.3693C63.9294 75.3693 64.5331 75.5327 64.9734 75.8594C65.4166 76.1861 65.6907 76.6278 65.7958 77.1847ZM68.1871 73.2727V82H66.6445V73.2727H68.1871ZM73.3813 79.2472V75.4545H74.9239V82H73.4281V80.8366H73.36C73.2122 81.2031 72.9693 81.5028 72.6313 81.7358C72.296 81.9687 71.8827 82.0852 71.3912 82.0852C70.9622 82.0852 70.583 81.9901 70.2534 81.7997C69.9267 81.6065 69.671 81.3267 69.4864 80.9602C69.3017 80.5909 69.2094 80.1449 69.2094 79.6222V75.4545H70.752V79.3835C70.752 79.7983 70.8656 80.1278 71.0929 80.3722C71.3202 80.6165 71.6185 80.7386 71.9878 80.7386C72.2151 80.7386 72.4352 80.6832 72.6483 80.5724C72.8614 80.4616 73.0361 80.2969 73.1725 80.0781C73.3117 79.8565 73.3813 79.5795 73.3813 79.2472ZM78.8013 82.1278C78.1479 82.1278 77.5868 81.9844 77.1181 81.6974C76.6521 81.4105 76.2928 81.0142 76.0399 80.5085C75.7899 80 75.6649 79.4148 75.6649 78.7528C75.6649 78.0881 75.7928 77.5014 76.0485 76.9929C76.3041 76.4815 76.6649 76.0838 77.1308 75.7997C77.5996 75.5128 78.1536 75.3693 78.7928 75.3693C79.324 75.3693 79.7942 75.4673 80.2033 75.6634C80.6152 75.8565 80.9433 76.1307 81.1877 76.4858C81.432 76.8381 81.5712 77.25 81.6053 77.7216H80.1308C80.0712 77.4062 79.9291 77.1435 79.7047 76.9332C79.4831 76.7202 79.1862 76.6136 78.8141 76.6136C78.4987 76.6136 78.2217 76.6989 77.9831 76.8693C77.7445 77.0369 77.5584 77.2784 77.4249 77.5938C77.2942 77.9091 77.2288 78.2869 77.2288 78.7273C77.2288 79.1733 77.2942 79.5568 77.4249 79.8778C77.5556 80.196 77.7388 80.4418 77.9746 80.6151C78.2132 80.7855 78.4931 80.8707 78.8141 80.8707C79.0413 80.8707 79.2445 80.8281 79.4235 80.7429C79.6053 80.6548 79.7573 80.5284 79.8794 80.3636C80.0016 80.1989 80.0854 79.9986 80.1308 79.7628H81.6053C81.5683 80.2259 81.432 80.6364 81.1962 80.9943C80.9604 81.3494 80.6394 81.6278 80.2331 81.8295C79.8269 82.0284 79.3496 82.1278 78.8013 82.1278ZM85.2057 82.1278C84.5494 82.1278 83.9827 81.9915 83.5054 81.7188C83.031 81.4432 82.6659 81.054 82.4102 80.5511C82.1545 80.0455 82.0267 79.4503 82.0267 78.7656C82.0267 78.0923 82.1545 77.5014 82.4102 76.9929C82.6688 76.4815 83.0295 76.0838 83.4926 75.7997C83.9557 75.5128 84.4997 75.3693 85.1247 75.3693C85.5281 75.3693 85.9088 75.4347 86.2668 75.5653C86.6276 75.6932 86.9457 75.892 87.2213 76.1619C87.4997 76.4318 87.7185 76.7756 87.8776 77.1932C88.0366 77.608 88.1162 78.1023 88.1162 78.6761V79.1491H82.7511V78.1094H86.6375C86.6347 77.8139 86.5707 77.5511 86.4457 77.321C86.3207 77.0881 86.146 76.9048 85.9216 76.7713C85.7 76.6378 85.4415 76.571 85.146 76.571C84.8307 76.571 84.5537 76.6477 84.3151 76.8011C84.0764 76.9517 83.8903 77.1506 83.7568 77.3977C83.6261 77.642 83.5594 77.9105 83.5565 78.2031V79.1108C83.5565 79.4915 83.6261 79.8182 83.7653 80.0909C83.9045 80.3608 84.0991 80.5682 84.3491 80.7131C84.5991 80.8551 84.8918 80.9261 85.227 80.9261C85.4514 80.9261 85.6545 80.8949 85.8364 80.8324C86.0182 80.767 86.1759 80.6719 86.3094 80.5469C86.4429 80.4219 86.5438 80.267 86.6119 80.0824L88.0523 80.2443C87.9614 80.625 87.7881 80.9574 87.5324 81.2415C87.2795 81.5227 86.9557 81.7415 86.5608 81.8977C86.1659 82.0511 85.7142 82.1278 85.2057 82.1278ZM90.3999 78.1648V82H88.8572V75.4545H90.3317V76.5668H90.4084C90.5589 76.2003 90.799 75.9091 91.1285 75.6932C91.4609 75.4773 91.8714 75.3693 92.3601 75.3693C92.8118 75.3693 93.2052 75.4659 93.5405 75.6591C93.8785 75.8523 94.1399 76.1321 94.3246 76.4986C94.5121 76.8651 94.6044 77.3097 94.6016 77.8324V82H93.0589V78.071C93.0589 77.6335 92.9453 77.2912 92.718 77.044C92.4936 76.7969 92.1825 76.6733 91.7848 76.6733C91.5149 76.6733 91.2749 76.733 91.0646 76.8523C90.8572 76.9687 90.6939 77.1378 90.5746 77.3594C90.4581 77.581 90.3999 77.8494 90.3999 78.1648ZM98.8742 75.4545V76.6477H95.1114V75.4545H98.8742ZM96.0404 73.8864H97.583V80.0312C97.583 80.2386 97.6143 80.3977 97.6768 80.5085C97.7421 80.6165 97.8273 80.6903 97.9324 80.7301C98.0376 80.7699 98.154 80.7898 98.2819 80.7898C98.3785 80.7898 98.4665 80.7827 98.5461 80.7685C98.6285 80.7543 98.691 80.7415 98.7336 80.7301L98.9935 81.9361C98.9111 81.9645 98.7932 81.9957 98.6398 82.0298C98.4893 82.0639 98.3046 82.0838 98.0859 82.0895C97.6995 82.1009 97.3515 82.0426 97.0418 81.9148C96.7322 81.7841 96.4864 81.5824 96.3046 81.3097C96.1256 81.0369 96.0376 80.696 96.0404 80.2869V73.8864ZM100.551 82.0938C100.292 82.0938 100.071 82.0028 99.8858 81.821C99.7012 81.6392 99.6103 81.4176 99.6131 81.1562C99.6103 80.9006 99.7012 80.6818 99.8858 80.5C100.071 80.3182 100.292 80.2273 100.551 80.2273C100.801 80.2273 101.018 80.3182 101.203 80.5C101.39 80.6818 101.485 80.9006 101.488 81.1562C101.485 81.3295 101.44 81.4872 101.352 81.6293C101.267 81.7713 101.153 81.8849 101.011 81.9702C100.872 82.0526 100.718 82.0938 100.551 82.0938ZM104.728 73.2727H106.663L109.254 79.5966H109.356L111.947 73.2727H113.881V82H112.364V76.0043H112.283L109.871 81.9744H108.738L106.326 75.9915H106.245V82H104.728V73.2727ZM115.93 84.4545C115.719 84.4545 115.525 84.4375 115.346 84.4034C115.17 84.3722 115.029 84.3352 114.924 84.2926L115.282 83.0909C115.506 83.1563 115.707 83.1875 115.883 83.1847C116.059 83.1818 116.214 83.1264 116.347 83.0185C116.484 82.9134 116.599 82.7372 116.692 82.4901L116.825 82.1364L114.451 75.4545H116.087L117.596 80.3977H117.664L119.177 75.4545H120.817L118.197 82.7926C118.075 83.1392 117.913 83.4361 117.711 83.6832C117.509 83.9332 117.262 84.1236 116.969 84.2543C116.68 84.3878 116.333 84.4545 115.93 84.4545ZM126.494 77.1847L125.088 77.3381C125.048 77.196 124.979 77.0625 124.879 76.9375C124.783 76.8125 124.652 76.7116 124.487 76.6349C124.322 76.5582 124.121 76.5199 123.882 76.5199C123.561 76.5199 123.291 76.5895 123.072 76.7287C122.856 76.8679 122.75 77.0483 122.753 77.2699C122.75 77.4602 122.819 77.6151 122.962 77.7344C123.106 77.8537 123.345 77.9517 123.677 78.0284L124.794 78.267C125.413 78.4006 125.873 78.6122 126.175 78.902C126.479 79.1918 126.632 79.571 126.635 80.0398C126.632 80.4517 126.511 80.8153 126.273 81.1307C126.037 81.4432 125.709 81.6875 125.288 81.8636C124.868 82.0398 124.385 82.1278 123.839 82.1278C123.038 82.1278 122.393 81.9602 121.905 81.625C121.416 81.2869 121.125 80.8168 121.031 80.2145L122.535 80.0696C122.604 80.3651 122.748 80.5881 122.97 80.7386C123.192 80.8892 123.48 80.9645 123.835 80.9645C124.202 80.9645 124.496 80.8892 124.717 80.7386C124.942 80.5881 125.054 80.402 125.054 80.1804C125.054 79.9929 124.981 79.8381 124.837 79.7159C124.694 79.5937 124.473 79.5 124.172 79.4347L123.055 79.2003C122.427 79.0696 121.963 78.8494 121.662 78.5398C121.361 78.2273 121.212 77.8324 121.214 77.3551C121.212 76.9517 121.321 76.6023 121.542 76.3068C121.767 76.0085 122.078 75.7784 122.476 75.6165C122.876 75.4517 123.338 75.3693 123.861 75.3693C124.628 75.3693 125.231 75.5327 125.672 75.8594C126.115 76.1861 126.389 76.6278 126.494 77.1847ZM130.611 75.4545V76.6477H126.849V75.4545H130.611ZM127.777 73.8864H129.32V80.0312C129.32 80.2386 129.351 80.3977 129.414 80.5085C129.479 80.6165 129.564 80.6903 129.67 80.7301C129.775 80.7699 129.891 80.7898 130.019 80.7898C130.116 80.7898 130.204 80.7827 130.283 80.7685C130.366 80.7543 130.428 80.7415 130.471 80.7301L130.731 81.9361C130.648 81.9645 130.53 81.9957 130.377 82.0298C130.226 82.0639 130.042 82.0838 129.823 82.0895C129.437 82.1009 129.089 82.0426 128.779 81.9148C128.469 81.7841 128.224 81.5824 128.042 81.3097C127.863 81.0369 127.775 80.696 127.777 80.2869V73.8864ZM134.165 82.1278C133.509 82.1278 132.942 81.9915 132.465 81.7188C131.99 81.4432 131.625 81.054 131.369 80.5511C131.114 80.0455 130.986 79.4503 130.986 78.7656C130.986 78.0923 131.114 77.5014 131.369 76.9929C131.628 76.4815 131.989 76.0838 132.452 75.7997C132.915 75.5128 133.459 75.3693 134.084 75.3693C134.487 75.3693 134.868 75.4347 135.226 75.5653C135.587 75.6932 135.905 75.892 136.18 76.1619C136.459 76.4318 136.678 76.7756 136.837 77.1932C136.996 77.608 137.075 78.1023 137.075 78.6761V79.1491H131.71V78.1094H135.597C135.594 77.8139 135.53 77.5511 135.405 77.321C135.28 77.0881 135.105 76.9048 134.881 76.7713C134.659 76.6378 134.401 76.571 134.105 76.571C133.79 76.571 133.513 76.6477 133.274 76.8011C133.036 76.9517 132.85 77.1506 132.716 77.3977C132.585 77.642 132.519 77.9105 132.516 78.2031V79.1108C132.516 79.4915 132.585 79.8182 132.725 80.0909C132.864 80.3608 133.058 80.5682 133.308 80.7131C133.558 80.8551 133.851 80.9261 134.186 80.9261C134.411 80.9261 134.614 80.8949 134.796 80.8324C134.977 80.767 135.135 80.6719 135.269 80.5469C135.402 80.4219 135.503 80.267 135.571 80.0824L137.011 80.2443C136.921 80.625 136.747 80.9574 136.492 81.2415C136.239 81.5227 135.915 81.7415 135.52 81.8977C135.125 82.0511 134.673 82.1278 134.165 82.1278ZM137.816 82V75.4545H139.312V76.5455H139.38C139.5 76.1676 139.704 75.8764 139.994 75.6719C140.287 75.4645 140.62 75.3608 140.995 75.3608C141.081 75.3608 141.176 75.3651 141.281 75.3736C141.389 75.3793 141.478 75.3892 141.549 75.4034V76.8224C141.484 76.7997 141.38 76.7798 141.238 76.7628C141.099 76.7429 140.964 76.733 140.833 76.733C140.552 76.733 140.299 76.794 140.075 76.9162C139.853 77.0355 139.679 77.2017 139.551 77.4148C139.423 77.6278 139.359 77.8736 139.359 78.152V82H137.816ZM142.01 82V75.4545H143.553V82H142.01ZM142.786 74.5256C142.541 74.5256 142.331 74.4446 142.155 74.2827C141.979 74.1179 141.891 73.9205 141.891 73.6903C141.891 73.4574 141.979 73.2599 142.155 73.098C142.331 72.9332 142.541 72.8509 142.786 72.8509C143.033 72.8509 143.243 72.9332 143.416 73.098C143.593 73.2599 143.681 73.4574 143.681 73.6903C143.681 73.9205 143.593 74.1179 143.416 74.2827C143.243 74.4446 143.033 74.5256 142.786 74.5256ZM147.43 82.1278C146.791 82.1278 146.237 81.9872 145.768 81.706C145.3 81.4247 144.936 81.0312 144.677 80.5256C144.422 80.0199 144.294 79.429 144.294 78.7528C144.294 78.0767 144.422 77.4844 144.677 76.9759C144.936 76.4673 145.3 76.0724 145.768 75.7912C146.237 75.5099 146.791 75.3693 147.43 75.3693C148.069 75.3693 148.623 75.5099 149.092 75.7912C149.561 76.0724 149.923 76.4673 150.179 76.9759C150.437 77.4844 150.567 78.0767 150.567 78.7528C150.567 79.429 150.437 80.0199 150.179 80.5256C149.923 81.0312 149.561 81.4247 149.092 81.706C148.623 81.9872 148.069 82.1278 147.43 82.1278ZM147.439 80.892C147.785 80.892 148.075 80.7969 148.308 80.6065C148.541 80.4134 148.714 80.1548 148.828 79.831C148.944 79.5071 149.003 79.1463 149.003 78.7486C149.003 78.348 148.944 77.9858 148.828 77.6619C148.714 77.3352 148.541 77.0753 148.308 76.8821C148.075 76.6889 147.785 76.5923 147.439 76.5923C147.084 76.5923 146.788 76.6889 146.552 76.8821C146.319 77.0753 146.145 77.3352 146.028 77.6619C145.915 77.9858 145.858 78.348 145.858 78.7486C145.858 79.1463 145.915 79.5071 146.028 79.831C146.145 80.1548 146.319 80.4134 146.552 80.6065C146.788 80.7969 147.084 80.892 147.439 80.892ZM155.484 79.2472V75.4545H157.026V82H155.531V80.8366H155.462C155.315 81.2031 155.072 81.5028 154.734 81.7358C154.399 81.9687 153.985 82.0852 153.494 82.0852C153.065 82.0852 152.685 81.9901 152.356 81.7997C152.029 81.6065 151.774 81.3267 151.589 80.9602C151.404 80.5909 151.312 80.1449 151.312 79.6222V75.4545H152.855V79.3835C152.855 79.7983 152.968 80.1278 153.195 80.3722C153.423 80.6165 153.721 80.7386 154.09 80.7386C154.318 80.7386 154.538 80.6832 154.751 80.5724C154.964 80.4616 155.139 80.2969 155.275 80.0781C155.414 79.8565 155.484 79.5795 155.484 79.2472ZM163.222 77.1847L161.816 77.3381C161.776 77.196 161.706 77.0625 161.607 76.9375C161.51 76.8125 161.38 76.7116 161.215 76.6349C161.05 76.5582 160.848 76.5199 160.61 76.5199C160.289 76.5199 160.019 76.5895 159.8 76.7287C159.584 76.8679 159.478 77.0483 159.48 77.2699C159.478 77.4602 159.547 77.6151 159.689 77.7344C159.834 77.8537 160.073 77.9517 160.405 78.0284L161.522 78.267C162.141 78.4006 162.601 78.6122 162.902 78.902C163.206 79.1918 163.36 79.571 163.363 80.0398C163.36 80.4517 163.239 80.8153 163 81.1307C162.765 81.4432 162.436 81.6875 162.016 81.8636C161.596 82.0398 161.113 82.1278 160.567 82.1278C159.766 82.1278 159.121 81.9602 158.632 81.625C158.144 81.2869 157.853 80.8168 157.759 80.2145L159.263 80.0696C159.331 80.3651 159.476 80.5881 159.698 80.7386C159.919 80.8892 160.208 80.9645 160.563 80.9645C160.929 80.9645 161.223 80.8892 161.445 80.7386C161.669 80.5881 161.782 80.402 161.782 80.1804C161.782 79.9929 161.709 79.8381 161.564 79.7159C161.422 79.5937 161.201 79.5 160.9 79.4347L159.783 79.2003C159.155 79.0696 158.691 78.8494 158.39 78.5398C158.088 78.2273 157.939 77.8324 157.942 77.3551C157.939 76.9517 158.049 76.6023 158.27 76.3068C158.495 76.0085 158.806 75.7784 159.204 75.6165C159.604 75.4517 160.066 75.3693 160.588 75.3693C161.355 75.3693 161.959 75.5327 162.4 75.8594C162.843 76.1861 163.117 76.6278 163.222 77.1847ZM165.021 82.0938C164.762 82.0938 164.541 82.0028 164.356 81.821C164.171 81.6392 164.081 81.4176 164.083 81.1562C164.081 80.9006 164.171 80.6818 164.356 80.5C164.541 80.3182 164.762 80.2273 165.021 80.2273C165.271 80.2273 165.488 80.3182 165.673 80.5C165.86 80.6818 165.956 80.9006 165.958 81.1562C165.956 81.3295 165.91 81.4872 165.822 81.6293C165.737 81.7713 165.623 81.8849 165.481 81.9702C165.342 82.0526 165.189 82.0938 165.021 82.0938ZM168.602 73.2727H170.387L172.522 77.1335H172.607L174.742 73.2727H176.528L173.353 78.7443V82H171.776V78.7443L168.602 73.2727ZM178.652 82.1278C178.012 82.1278 177.459 81.9872 176.99 81.706C176.521 81.4247 176.157 81.0312 175.899 80.5256C175.643 80.0199 175.515 79.429 175.515 78.7528C175.515 78.0767 175.643 77.4844 175.899 76.9759C176.157 76.4673 176.521 76.0724 176.99 75.7912C177.459 75.5099 178.012 75.3693 178.652 75.3693C179.291 75.3693 179.845 75.5099 180.314 75.7912C180.782 76.0724 181.145 76.4673 181.4 76.9759C181.659 77.4844 181.788 78.0767 181.788 78.7528C181.788 79.429 181.659 80.0199 181.4 80.5256C181.145 81.0312 180.782 81.4247 180.314 81.706C179.845 81.9872 179.291 82.1278 178.652 82.1278ZM178.66 80.892C179.007 80.892 179.297 80.7969 179.53 80.6065C179.762 80.4134 179.936 80.1548 180.049 79.831C180.166 79.5071 180.224 79.1463 180.224 78.7486C180.224 78.348 180.166 77.9858 180.049 77.6619C179.936 77.3352 179.762 77.0753 179.53 76.8821C179.297 76.6889 179.007 76.5923 178.66 76.5923C178.305 76.5923 178.01 76.6889 177.774 76.8821C177.541 77.0753 177.366 77.3352 177.25 77.6619C177.136 77.9858 177.079 78.348 177.079 78.7486C177.079 79.1463 177.136 79.5071 177.25 79.831C177.366 80.1548 177.541 80.4134 177.774 80.6065C178.01 80.7969 178.305 80.892 178.66 80.892ZM186.705 79.2472V75.4545H188.248V82H186.752V80.8366H186.684C186.536 81.2031 186.293 81.5028 185.955 81.7358C185.62 81.9687 185.207 82.0852 184.715 82.0852C184.286 82.0852 183.907 81.9901 183.577 81.7997C183.251 81.6065 182.995 81.3267 182.81 80.9602C182.626 80.5909 182.533 80.1449 182.533 79.6222V75.4545H184.076V79.3835C184.076 79.7983 184.19 80.1278 184.417 80.3722C184.644 80.6165 184.942 80.7386 185.312 80.7386C185.539 80.7386 185.759 80.6832 185.972 80.5724C186.185 80.4616 186.36 80.2969 186.496 80.0781C186.636 79.8565 186.705 79.5795 186.705 79.2472ZM189.27 82V75.4545H190.766V76.5455H190.834C190.953 76.1676 191.158 75.8764 191.448 75.6719C191.74 75.4645 192.074 75.3608 192.449 75.3608C192.534 75.3608 192.63 75.3651 192.735 75.3736C192.843 75.3793 192.932 75.3892 193.003 75.4034V76.8224C192.938 76.7997 192.834 76.7798 192.692 76.7628C192.553 76.7429 192.418 76.733 192.287 76.733C192.006 76.733 191.753 76.794 191.529 76.9162C191.307 77.0355 191.132 77.2017 191.005 77.4148C190.877 77.6278 190.813 77.8736 190.813 78.152V82H189.27ZM198.637 77.1847L197.231 77.3381C197.191 77.196 197.122 77.0625 197.022 76.9375C196.926 76.8125 196.795 76.7116 196.63 76.6349C196.465 76.5582 196.264 76.5199 196.025 76.5199C195.704 76.5199 195.434 76.5895 195.215 76.7287C194.999 76.8679 194.893 77.0483 194.896 77.2699C194.893 77.4602 194.963 77.6151 195.105 77.7344C195.249 77.8537 195.488 77.9517 195.82 78.0284L196.937 78.267C197.556 78.4006 198.017 78.6122 198.318 78.902C198.622 79.1918 198.775 79.571 198.778 80.0398C198.775 80.4517 198.654 80.8153 198.416 81.1307C198.18 81.4432 197.852 81.6875 197.431 81.8636C197.011 82.0398 196.528 82.1278 195.982 82.1278C195.181 82.1278 194.536 81.9602 194.048 81.625C193.559 81.2869 193.268 80.8168 193.174 80.2145L194.678 80.0696C194.747 80.3651 194.892 80.5881 195.113 80.7386C195.335 80.8892 195.623 80.9645 195.978 80.9645C196.345 80.9645 196.639 80.8892 196.86 80.7386C197.085 80.5881 197.197 80.402 197.197 80.1804C197.197 79.9929 197.124 79.8381 196.98 79.7159C196.838 79.5937 196.616 79.5 196.315 79.4347L195.198 79.2003C194.57 79.0696 194.106 78.8494 193.805 78.5398C193.504 78.2273 193.355 77.8324 193.357 77.3551C193.355 76.9517 193.464 76.6023 193.686 76.3068C193.91 76.0085 194.221 75.7784 194.619 75.6165C195.019 75.4517 195.481 75.3693 196.004 75.3693C196.771 75.3693 197.374 75.5327 197.815 75.8594C198.258 76.1861 198.532 76.6278 198.637 77.1847ZM200.436 82.0938C200.178 82.0938 199.956 82.0028 199.771 81.821C199.587 81.6392 199.496 81.4176 199.499 81.1562C199.496 80.9006 199.587 80.6818 199.771 80.5C199.956 80.3182 200.178 80.2273 200.436 80.2273C200.686 80.2273 200.904 80.3182 201.088 80.5C201.276 80.6818 201.371 80.9006 201.374 81.1562C201.371 81.3295 201.325 81.4872 201.237 81.6293C201.152 81.7713 201.038 81.8849 200.896 81.9702C200.757 82.0526 200.604 82.0938 200.436 82.0938Z" fill="#B1CFFB" fill-opacity="0.5"/>
<path d="M739.237 54V45.2727H742.433C743.053 45.2727 743.565 45.375 743.972 45.5795C744.378 45.7812 744.682 46.0554 744.884 46.402C745.085 46.7457 745.186 47.1335 745.186 47.5653C745.186 47.929 745.119 48.2358 744.986 48.4858C744.852 48.733 744.673 48.9318 744.449 49.0824C744.227 49.2301 743.983 49.3381 743.716 49.4062V49.4915C744.006 49.5057 744.288 49.5994 744.564 49.7727C744.842 49.9432 745.072 50.1861 745.254 50.5014C745.436 50.8168 745.527 51.2003 745.527 51.652C745.527 52.098 745.422 52.4986 745.212 52.8537C745.004 53.206 744.683 53.4858 744.249 53.6932C743.814 53.8977 743.259 54 742.582 54H739.237ZM740.554 52.8707H742.455C743.085 52.8707 743.537 52.7486 743.81 52.5043C744.082 52.2599 744.219 51.9545 744.219 51.5881C744.219 51.3125 744.149 51.0597 744.01 50.8295C743.871 50.5994 743.672 50.4162 743.413 50.2798C743.158 50.1435 742.854 50.0753 742.501 50.0753H740.554V52.8707ZM740.554 49.0483H742.318C742.614 49.0483 742.879 48.9915 743.115 48.8778C743.354 48.7642 743.543 48.6051 743.682 48.4006C743.824 48.1932 743.895 47.9489 743.895 47.6676C743.895 47.3068 743.768 47.0043 743.516 46.7599C743.263 46.5156 742.875 46.3935 742.352 46.3935H740.554V49.0483ZM746.423 54V47.4545H747.654V48.4943H747.722C747.842 48.142 748.052 47.8651 748.353 47.6634C748.657 47.4588 749.001 47.3565 749.384 47.3565C749.464 47.3565 749.557 47.3594 749.665 47.3651C749.776 47.3707 749.863 47.3778 749.925 47.3864V48.6051C749.874 48.5909 749.783 48.5753 749.653 48.5582C749.522 48.5384 749.391 48.5284 749.261 48.5284C748.959 48.5284 748.691 48.5923 748.455 48.7202C748.222 48.8452 748.038 49.0199 747.901 49.2443C747.765 49.4659 747.697 49.7187 747.697 50.0028V54H746.423ZM753.051 54.1321C752.406 54.1321 751.85 53.9943 751.384 53.7188C750.921 53.4403 750.563 53.0497 750.311 52.5469C750.061 52.0412 749.936 51.4489 749.936 50.7699C749.936 50.0994 750.061 49.5085 750.311 48.9972C750.563 48.4858 750.916 48.0866 751.367 47.7997C751.822 47.5128 752.353 47.3693 752.961 47.3693C753.33 47.3693 753.688 47.4304 754.035 47.5526C754.382 47.6747 754.693 47.8665 754.968 48.1278C755.244 48.3892 755.461 48.7287 755.62 49.1463C755.779 49.5611 755.859 50.0653 755.859 50.6591V51.1108H750.656V50.1562H754.61C754.61 49.821 754.542 49.5241 754.406 49.2656C754.269 49.0043 754.078 48.7983 753.83 48.6477C753.586 48.4972 753.299 48.4219 752.97 48.4219C752.612 48.4219 752.299 48.5099 752.032 48.6861C751.768 48.8594 751.563 49.0866 751.419 49.3679C751.276 49.6463 751.205 49.9489 751.205 50.2756V51.0213C751.205 51.4588 751.282 51.831 751.436 52.1378C751.592 52.4446 751.809 52.679 752.088 52.8409C752.366 53 752.691 53.0795 753.063 53.0795C753.305 53.0795 753.525 53.0455 753.724 52.9773C753.923 52.9062 754.095 52.8011 754.24 52.6619C754.384 52.5227 754.495 52.3509 754.572 52.1463L755.778 52.3636C755.681 52.7187 755.508 53.0298 755.258 53.2969C755.011 53.5611 754.7 53.767 754.325 53.9148C753.953 54.0597 753.528 54.1321 753.051 54.1321ZM758.116 54L756.19 47.4545H757.507L758.789 52.2614H758.853L760.14 47.4545H761.457L762.735 52.2401H762.799L764.073 47.4545H765.39L763.468 54H762.168L760.839 49.2741H760.741L759.411 54H758.116ZM768.657 54.1321C768.012 54.1321 767.457 53.9943 766.991 53.7188C766.528 53.4403 766.17 53.0497 765.917 52.5469C765.667 52.0412 765.542 51.4489 765.542 50.7699C765.542 50.0994 765.667 49.5085 765.917 48.9972C766.17 48.4858 766.522 48.0866 766.974 47.7997C767.428 47.5128 767.96 47.3693 768.568 47.3693C768.937 47.3693 769.295 47.4304 769.641 47.5526C769.988 47.6747 770.299 47.8665 770.575 48.1278C770.85 48.3892 771.068 48.7287 771.227 49.1463C771.386 49.5611 771.465 50.0653 771.465 50.6591V51.1108H766.262V50.1562H770.217C770.217 49.821 770.148 49.5241 770.012 49.2656C769.876 49.0043 769.684 48.7983 769.437 48.6477C769.193 48.4972 768.906 48.4219 768.576 48.4219C768.218 48.4219 767.906 48.5099 767.639 48.6861C767.374 48.8594 767.17 49.0866 767.025 49.3679C766.883 49.6463 766.812 49.9489 766.812 50.2756V51.0213C766.812 51.4588 766.889 51.831 767.042 52.1378C767.198 52.4446 767.416 52.679 767.694 52.8409C767.972 53 768.298 53.0795 768.67 53.0795C768.911 53.0795 769.131 53.0455 769.33 52.9773C769.529 52.9062 769.701 52.8011 769.846 52.6619C769.991 52.5227 770.102 52.3509 770.178 52.1463L771.384 52.3636C771.288 52.7187 771.114 53.0298 770.864 53.2969C770.617 53.5611 770.306 53.767 769.931 53.9148C769.559 54.0597 769.134 54.1321 768.657 54.1321ZM774.765 54.1278C774.237 54.1278 773.765 53.9929 773.35 53.723C772.939 53.4503 772.615 53.0625 772.379 52.5597C772.146 52.054 772.029 51.4474 772.029 50.7401C772.029 50.0327 772.147 49.4276 772.383 48.9247C772.622 48.4219 772.948 48.0369 773.363 47.7699C773.778 47.5028 774.248 47.3693 774.774 47.3693C775.18 47.3693 775.507 47.4375 775.754 47.5739C776.004 47.7074 776.197 47.8636 776.333 48.0426C776.473 48.2216 776.581 48.3793 776.657 48.5156H776.734V45.2727H778.008V54H776.764V52.9815H776.657C776.581 53.1207 776.47 53.2798 776.325 53.4588C776.183 53.6378 775.987 53.794 775.737 53.9276C775.487 54.0611 775.163 54.1278 774.765 54.1278ZM775.046 53.0412C775.413 53.0412 775.723 52.9446 775.975 52.7514C776.231 52.5554 776.424 52.2841 776.555 51.9375C776.689 51.5909 776.755 51.1875 776.755 50.7273C776.755 50.2727 776.69 49.875 776.559 49.5341C776.429 49.1932 776.237 48.9276 775.984 48.7372C775.731 48.5469 775.419 48.4517 775.046 48.4517C774.663 48.4517 774.343 48.5511 774.088 48.75C773.832 48.9489 773.639 49.2202 773.508 49.5639C773.38 49.9077 773.316 50.2955 773.316 50.7273C773.316 51.1648 773.382 51.5582 773.512 51.9077C773.643 52.2571 773.836 52.5341 774.092 52.7386C774.35 52.9403 774.669 53.0412 775.046 53.0412ZM783.293 54L781.367 47.4545H782.684L783.967 52.2614H784.031L785.318 47.4545H786.634L787.913 52.2401H787.977L789.251 47.4545H790.568L788.646 54H787.346L786.016 49.2741H785.918L784.589 54H783.293ZM791.213 54V47.4545H792.487V54H791.213ZM791.856 46.4446C791.635 46.4446 791.444 46.3707 791.285 46.223C791.129 46.0724 791.051 45.8935 791.051 45.6861C791.051 45.4759 791.129 45.2969 791.285 45.1491C791.444 44.9986 791.635 44.9233 791.856 44.9233C792.078 44.9233 792.267 44.9986 792.423 45.1491C792.582 45.2969 792.662 45.4759 792.662 45.6861C792.662 45.8935 792.582 46.0724 792.423 46.223C792.267 46.3707 792.078 46.4446 791.856 46.4446ZM796.692 47.4545V48.4773H793.117V47.4545H796.692ZM794.076 45.8864H795.35V52.0781C795.35 52.3253 795.387 52.5114 795.461 52.6364C795.535 52.7585 795.63 52.8423 795.746 52.8878C795.866 52.9304 795.995 52.9517 796.134 52.9517C796.236 52.9517 796.326 52.9446 796.403 52.9304C796.479 52.9162 796.539 52.9048 796.582 52.8963L796.812 53.9489C796.738 53.9773 796.633 54.0057 796.496 54.0341C796.36 54.0653 796.19 54.0824 795.985 54.0852C795.65 54.0909 795.337 54.0312 795.048 53.9062C794.758 53.7812 794.523 53.5881 794.344 53.3267C794.165 53.0653 794.076 52.7372 794.076 52.3423V45.8864ZM798.953 50.1136V54H797.679V45.2727H798.936V48.5199H799.017C799.17 48.1676 799.404 47.8878 799.72 47.6804C800.035 47.473 800.447 47.3693 800.956 47.3693C801.404 47.3693 801.796 47.4616 802.132 47.6463C802.47 47.831 802.731 48.1065 802.916 48.473C803.103 48.8366 803.197 49.2912 803.197 49.8366V54H801.923V49.9901C801.923 49.5099 801.799 49.1378 801.552 48.8736C801.305 48.6065 800.961 48.473 800.521 48.473C800.22 48.473 799.95 48.5369 799.711 48.6648C799.475 48.7926 799.289 48.9801 799.153 49.2273C799.019 49.4716 798.953 49.767 798.953 50.1136ZM809.702 54.1321C809.069 54.1321 808.523 53.9886 808.066 53.7017C807.611 53.4119 807.262 53.0128 807.018 52.5043C806.773 51.9957 806.651 51.4134 806.651 50.7571C806.651 50.0923 806.776 49.5057 807.026 48.9972C807.276 48.4858 807.628 48.0866 808.083 47.7997C808.537 47.5128 809.073 47.3693 809.689 47.3693C810.187 47.3693 810.63 47.4616 811.019 47.6463C811.408 47.8281 811.722 48.0838 811.961 48.4134C812.202 48.7429 812.346 49.1278 812.391 49.5682H811.151C811.083 49.2614 810.927 48.9972 810.682 48.7756C810.441 48.554 810.117 48.4432 809.711 48.4432C809.356 48.4432 809.045 48.5369 808.777 48.7244C808.513 48.9091 808.307 49.1733 808.16 49.517C808.012 49.858 807.938 50.2614 807.938 50.7273C807.938 51.2045 808.01 51.6165 808.155 51.9631C808.3 52.3097 808.505 52.5781 808.769 52.7685C809.036 52.9588 809.35 53.054 809.711 53.054C809.952 53.054 810.171 53.0099 810.367 52.9219C810.566 52.831 810.732 52.7017 810.866 52.5341C811.002 52.3665 811.097 52.1648 811.151 51.929H812.391C812.346 52.3523 812.208 52.7301 811.978 53.0625C811.748 53.3949 811.439 53.6562 811.053 53.8466C810.67 54.0369 810.219 54.1321 809.702 54.1321ZM815.947 54.1321C815.333 54.1321 814.798 53.9915 814.34 53.7102C813.883 53.429 813.528 53.0355 813.275 52.5298C813.022 52.0241 812.896 51.4332 812.896 50.7571C812.896 50.0781 813.022 49.4844 813.275 48.9759C813.528 48.4673 813.883 48.0724 814.34 47.7912C814.798 47.5099 815.333 47.3693 815.947 47.3693C816.56 47.3693 817.096 47.5099 817.553 47.7912C818.011 48.0724 818.366 48.4673 818.619 48.9759C818.871 49.4844 818.998 50.0781 818.998 50.7571C818.998 51.4332 818.871 52.0241 818.619 52.5298C818.366 53.0355 818.011 53.429 817.553 53.7102C817.096 53.9915 816.56 54.1321 815.947 54.1321ZM815.951 53.0625C816.349 53.0625 816.678 52.9574 816.94 52.7472C817.201 52.5369 817.394 52.2571 817.519 51.9077C817.647 51.5582 817.711 51.1733 817.711 50.7528C817.711 50.3352 817.647 49.9517 817.519 49.6023C817.394 49.25 817.201 48.9673 816.94 48.7543C816.678 48.5412 816.349 48.4347 815.951 48.4347C815.55 48.4347 815.218 48.5412 814.954 48.7543C814.693 48.9673 814.498 49.25 814.37 49.6023C814.245 49.9517 814.183 50.3352 814.183 50.7528C814.183 51.1733 814.245 51.5582 814.37 51.9077C814.498 52.2571 814.693 52.5369 814.954 52.7472C815.218 52.9574 815.55 53.0625 815.951 53.0625ZM822.971 47.4545V48.4773H819.272V47.4545H822.971ZM820.287 54V46.696C820.287 46.2869 820.376 45.9474 820.555 45.6776C820.734 45.4048 820.971 45.2017 821.267 45.0682C821.562 44.9318 821.883 44.8636 822.23 44.8636C822.485 44.8636 822.704 44.8849 822.886 44.9276C823.068 44.9673 823.203 45.0043 823.291 45.0384L822.993 46.0696C822.933 46.0526 822.856 46.0327 822.762 46.0099C822.669 45.9844 822.555 45.9716 822.421 45.9716C822.112 45.9716 821.89 46.0483 821.757 46.2017C821.626 46.3551 821.561 46.5767 821.561 46.8665V54H820.287ZM826.837 47.4545V48.4773H823.138V47.4545H826.837ZM824.152 54V46.696C824.152 46.2869 824.242 45.9474 824.421 45.6776C824.6 45.4048 824.837 45.2017 825.132 45.0682C825.428 44.9318 825.749 44.8636 826.095 44.8636C826.351 44.8636 826.57 44.8849 826.752 44.9276C826.933 44.9673 827.068 45.0043 827.156 45.0384L826.858 46.0696C826.799 46.0526 826.722 46.0327 826.628 46.0099C826.534 45.9844 826.421 45.9716 826.287 45.9716C825.978 45.9716 825.756 46.0483 825.622 46.2017C825.492 46.3551 825.426 46.5767 825.426 46.8665V54H824.152ZM830.151 54.1321C829.506 54.1321 828.95 53.9943 828.485 53.7188C828.021 53.4403 827.664 53.0497 827.411 52.5469C827.161 52.0412 827.036 51.4489 827.036 50.7699C827.036 50.0994 827.161 49.5085 827.411 48.9972C827.664 48.4858 828.016 48.0866 828.467 47.7997C828.922 47.5128 829.453 47.3693 830.061 47.3693C830.431 47.3693 830.789 47.4304 831.135 47.5526C831.482 47.6747 831.793 47.8665 832.068 48.1278C832.344 48.3892 832.561 48.7287 832.72 49.1463C832.879 49.5611 832.959 50.0653 832.959 50.6591V51.1108H827.756V50.1562H831.71C831.71 49.821 831.642 49.5241 831.506 49.2656C831.369 49.0043 831.178 48.7983 830.931 48.6477C830.686 48.4972 830.399 48.4219 830.07 48.4219C829.712 48.4219 829.399 48.5099 829.132 48.6861C828.868 48.8594 828.664 49.0866 828.519 49.3679C828.377 49.6463 828.306 49.9489 828.306 50.2756V51.0213C828.306 51.4588 828.382 51.831 828.536 52.1378C828.692 52.4446 828.909 52.679 829.188 52.8409C829.466 53 829.791 53.0795 830.164 53.0795C830.405 53.0795 830.625 53.0455 830.824 52.9773C831.023 52.9062 831.195 52.8011 831.34 52.6619C831.485 52.5227 831.595 52.3509 831.672 52.1463L832.878 52.3636C832.781 52.7187 832.608 53.0298 832.358 53.2969C832.111 53.5611 831.8 53.767 831.425 53.9148C831.053 54.0597 830.628 54.1321 830.151 54.1321ZM836.63 54.1321C835.985 54.1321 835.429 53.9943 834.963 53.7188C834.5 53.4403 834.142 53.0497 833.89 52.5469C833.64 52.0412 833.515 51.4489 833.515 50.7699C833.515 50.0994 833.64 49.5085 833.89 48.9972C834.142 48.4858 834.495 48.0866 834.946 47.7997C835.401 47.5128 835.932 47.3693 836.54 47.3693C836.91 47.3693 837.267 47.4304 837.614 47.5526C837.961 47.6747 838.272 47.8665 838.547 48.1278C838.823 48.3892 839.04 48.7287 839.199 49.1463C839.358 49.5611 839.438 50.0653 839.438 50.6591V51.1108H834.235V50.1562H838.189C838.189 49.821 838.121 49.5241 837.985 49.2656C837.848 49.0043 837.657 48.7983 837.41 48.6477C837.165 48.4972 836.878 48.4219 836.549 48.4219C836.191 48.4219 835.878 48.5099 835.611 48.6861C835.347 48.8594 835.142 49.0866 834.998 49.3679C834.856 49.6463 834.785 49.9489 834.785 50.2756V51.0213C834.785 51.4588 834.861 51.831 835.015 52.1378C835.171 52.4446 835.388 52.679 835.667 52.8409C835.945 53 836.27 53.0795 836.642 53.0795C836.884 53.0795 837.104 53.0455 837.303 52.9773C837.502 52.9062 837.674 52.8011 837.819 52.6619C837.963 52.5227 838.074 52.3509 838.151 52.1463L839.357 52.3636C839.26 52.7187 839.087 53.0298 838.837 53.2969C838.59 53.5611 838.279 53.767 837.904 53.9148C837.532 54.0597 837.107 54.1321 836.63 54.1321ZM841.945 52.8068L841.881 53.2713C841.839 53.6122 841.766 53.9673 841.664 54.3366C841.565 54.7088 841.461 55.054 841.353 55.3722C841.248 55.6903 841.161 55.9432 841.093 56.1307H840.19C840.227 55.9545 840.278 55.7159 840.343 55.4148C840.408 55.1165 840.472 54.7827 840.535 54.4134C840.597 54.044 840.644 53.6676 840.675 53.2841L840.718 52.8068H841.945ZM848.707 47.4545V48.4773H845.132V47.4545H848.707ZM846.091 45.8864H847.365V52.0781C847.365 52.3253 847.402 52.5114 847.476 52.6364C847.55 52.7585 847.645 52.8423 847.761 52.8878C847.881 52.9304 848.01 52.9517 848.149 52.9517C848.251 52.9517 848.341 52.9446 848.417 52.9304C848.494 52.9162 848.554 52.9048 848.596 52.8963L848.827 53.9489C848.753 53.9773 848.648 54.0057 848.511 54.0341C848.375 54.0653 848.204 54.0824 848 54.0852C847.665 54.0909 847.352 54.0312 847.062 53.9062C846.773 53.7812 846.538 53.5881 846.359 53.3267C846.18 53.0653 846.091 52.7372 846.091 52.3423V45.8864ZM852.239 54.1321C851.626 54.1321 851.09 53.9915 850.633 53.7102C850.176 53.429 849.82 53.0355 849.568 52.5298C849.315 52.0241 849.188 51.4332 849.188 50.7571C849.188 50.0781 849.315 49.4844 849.568 48.9759C849.82 48.4673 850.176 48.0724 850.633 47.7912C851.09 47.5099 851.626 47.3693 852.239 47.3693C852.853 47.3693 853.389 47.5099 853.846 47.7912C854.303 48.0724 854.658 48.4673 854.911 48.9759C855.164 49.4844 855.291 50.0781 855.291 50.7571C855.291 51.4332 855.164 52.0241 854.911 52.5298C854.658 53.0355 854.303 53.429 853.846 53.7102C853.389 53.9915 852.853 54.1321 852.239 54.1321ZM852.244 53.0625C852.641 53.0625 852.971 52.9574 853.232 52.7472C853.494 52.5369 853.687 52.2571 853.812 51.9077C853.94 51.5582 854.004 51.1733 854.004 50.7528C854.004 50.3352 853.94 49.9517 853.812 49.6023C853.687 49.25 853.494 48.9673 853.232 48.7543C852.971 48.5412 852.641 48.4347 852.244 48.4347C851.843 48.4347 851.511 48.5412 851.247 48.7543C850.985 48.9673 850.791 49.25 850.663 49.6023C850.538 49.9517 850.475 50.3352 850.475 50.7528C850.475 51.1733 850.538 51.5582 850.663 51.9077C850.791 52.2571 850.985 52.5369 851.247 52.7472C851.511 52.9574 851.843 53.0625 852.244 53.0625ZM858.906 54.1321C858.292 54.1321 857.757 53.9915 857.299 53.7102C856.842 53.429 856.487 53.0355 856.234 52.5298C855.981 52.0241 855.855 51.4332 855.855 50.7571C855.855 50.0781 855.981 49.4844 856.234 48.9759C856.487 48.4673 856.842 48.0724 857.299 47.7912C857.757 47.5099 858.292 47.3693 858.906 47.3693C859.52 47.3693 860.055 47.5099 860.512 47.7912C860.97 48.0724 861.325 48.4673 861.578 48.9759C861.831 49.4844 861.957 50.0781 861.957 50.7571C861.957 51.4332 861.831 52.0241 861.578 52.5298C861.325 53.0355 860.97 53.429 860.512 53.7102C860.055 53.9915 859.52 54.1321 858.906 54.1321ZM858.91 53.0625C859.308 53.0625 859.637 52.9574 859.899 52.7472C860.16 52.5369 860.353 52.2571 860.478 51.9077C860.606 51.5582 860.67 51.1733 860.67 50.7528C860.67 50.3352 860.606 49.9517 860.478 49.6023C860.353 49.25 860.16 48.9673 859.899 48.7543C859.637 48.5412 859.308 48.4347 858.91 48.4347C858.51 48.4347 858.177 48.5412 857.913 48.7543C857.652 48.9673 857.457 49.25 857.329 49.6023C857.204 49.9517 857.142 50.3352 857.142 50.7528C857.142 51.1733 857.204 51.5582 857.329 51.9077C857.457 52.2571 857.652 52.5369 857.913 52.7472C858.177 52.9574 858.51 53.0625 858.91 53.0625ZM865.427 54V47.4545H866.65V48.5199H866.731C866.867 48.1591 867.09 47.8778 867.4 47.6761C867.71 47.4716 868.08 47.3693 868.512 47.3693C868.95 47.3693 869.316 47.4716 869.612 47.6761C869.91 47.8807 870.13 48.1619 870.272 48.5199H870.34C870.497 48.1705 870.745 47.892 871.086 47.6847C871.427 47.4744 871.833 47.3693 872.305 47.3693C872.899 47.3693 873.383 47.5554 873.758 47.9276C874.136 48.2997 874.325 48.8608 874.325 49.6108V54H873.051V49.7301C873.051 49.2869 872.93 48.9659 872.688 48.767C872.447 48.5682 872.159 48.4688 871.823 48.4688C871.409 48.4688 871.086 48.5966 870.856 48.8523C870.626 49.1051 870.511 49.4304 870.511 49.8281V54H869.241V49.6491C869.241 49.294 869.13 49.0085 868.909 48.7926C868.687 48.5767 868.399 48.4688 868.044 48.4688C867.802 48.4688 867.579 48.5327 867.375 48.6605C867.173 48.7855 867.009 48.9602 866.884 49.1847C866.762 49.4091 866.701 49.669 866.701 49.9645V54H865.427ZM877.373 54.1449C876.959 54.1449 876.584 54.0682 876.248 53.9148C875.913 53.7585 875.648 53.5327 875.451 53.2372C875.258 52.9418 875.162 52.5795 875.162 52.1506C875.162 51.7812 875.233 51.4773 875.375 51.2386C875.517 51 875.709 50.8111 875.95 50.6719C876.192 50.5327 876.461 50.4276 876.76 50.3565C877.058 50.2855 877.362 50.2315 877.672 50.1946C878.064 50.1491 878.382 50.1122 878.626 50.0838C878.871 50.0526 879.048 50.0028 879.159 49.9347C879.27 49.8665 879.325 49.7557 879.325 49.6023V49.5724C879.325 49.2003 879.22 48.9119 879.01 48.7074C878.802 48.5028 878.493 48.4006 878.081 48.4006C877.652 48.4006 877.314 48.4957 877.067 48.6861C876.822 48.8736 876.653 49.0824 876.559 49.3125L875.362 49.0398C875.504 48.642 875.711 48.321 875.984 48.0767C876.26 47.8295 876.576 47.6506 876.934 47.5398C877.292 47.4261 877.669 47.3693 878.064 47.3693C878.325 47.3693 878.602 47.4006 878.895 47.4631C879.19 47.5227 879.466 47.6335 879.721 47.7955C879.98 47.9574 880.192 48.1889 880.356 48.4901C880.521 48.7884 880.603 49.1761 880.603 49.6534V54H879.359V53.1051H879.308C879.226 53.2699 879.102 53.4318 878.937 53.5909C878.773 53.75 878.561 53.8821 878.302 53.9872C878.044 54.0923 877.734 54.1449 877.373 54.1449ZM877.65 53.1222C878.003 53.1222 878.304 53.0526 878.554 52.9134C878.807 52.7741 878.998 52.5923 879.129 52.3679C879.263 52.1406 879.329 51.8977 879.329 51.6392V50.7955C879.284 50.8409 879.196 50.8835 879.065 50.9233C878.937 50.9602 878.791 50.9929 878.626 51.0213C878.461 51.0469 878.301 51.071 878.145 51.0938C877.988 51.1136 877.858 51.1307 877.753 51.1449C877.505 51.1761 877.28 51.2287 877.075 51.3026C876.873 51.3764 876.711 51.483 876.589 51.6222C876.47 51.7585 876.41 51.9403 876.41 52.1676C876.41 52.483 876.527 52.7216 876.76 52.8835C876.993 53.0426 877.29 53.1222 877.65 53.1222ZM883.011 50.1136V54H881.737V47.4545H882.96V48.5199H883.041C883.191 48.1733 883.427 47.8949 883.748 47.6847C884.072 47.4744 884.479 47.3693 884.971 47.3693C885.417 47.3693 885.808 47.4631 886.143 47.6506C886.478 47.8352 886.738 48.1108 886.923 48.4773C887.107 48.8437 887.2 49.2969 887.2 49.8366V54H885.925V49.9901C885.925 49.5156 885.802 49.1449 885.555 48.8778C885.308 48.608 884.968 48.473 884.536 48.473C884.241 48.473 883.978 48.5369 883.748 48.6648C883.521 48.7926 883.34 48.9801 883.207 49.2273C883.076 49.4716 883.011 49.767 883.011 50.1136ZM888.915 56.4545C888.725 56.4545 888.552 56.4389 888.396 56.4077C888.239 56.3793 888.123 56.348 888.046 56.3139L888.353 55.2699C888.586 55.3324 888.793 55.3594 888.975 55.3509C889.157 55.3423 889.317 55.2741 889.457 55.1463C889.599 55.0185 889.724 54.8097 889.832 54.5199L889.989 54.0852L887.594 47.4545H888.958L890.616 52.5341H890.684L892.342 47.4545H893.71L891.012 54.8736C890.887 55.2145 890.728 55.5028 890.535 55.7386C890.342 55.9773 890.111 56.1563 889.844 56.2756C889.577 56.3949 889.268 56.4545 888.915 56.4545ZM899.712 54.1321C899.098 54.1321 898.563 53.9915 898.105 53.7102C897.648 53.429 897.293 53.0355 897.04 52.5298C896.787 52.0241 896.661 51.4332 896.661 50.7571C896.661 50.0781 896.787 49.4844 897.04 48.9759C897.293 48.4673 897.648 48.0724 898.105 47.7912C898.563 47.5099 899.098 47.3693 899.712 47.3693C900.325 47.3693 900.861 47.5099 901.318 47.7912C901.776 48.0724 902.131 48.4673 902.384 48.9759C902.637 49.4844 902.763 50.0781 902.763 50.7571C902.763 51.4332 902.637 52.0241 902.384 52.5298C902.131 53.0355 901.776 53.429 901.318 53.7102C900.861 53.9915 900.325 54.1321 899.712 54.1321ZM899.716 53.0625C900.114 53.0625 900.443 52.9574 900.705 52.7472C900.966 52.5369 901.159 52.2571 901.284 51.9077C901.412 51.5582 901.476 51.1733 901.476 50.7528C901.476 50.3352 901.412 49.9517 901.284 49.6023C901.159 49.25 900.966 48.9673 900.705 48.7543C900.443 48.5412 900.114 48.4347 899.716 48.4347C899.316 48.4347 898.983 48.5412 898.719 48.7543C898.458 48.9673 898.263 49.25 898.135 49.6023C898.01 49.9517 897.948 50.3352 897.948 50.7528C897.948 51.1733 898.01 51.5582 898.135 51.9077C898.263 52.2571 898.458 52.5369 898.719 52.7472C898.983 52.9574 899.316 53.0625 899.716 53.0625ZM903.621 56.4545V47.4545H904.866V48.5156H904.972C905.046 48.3793 905.152 48.2216 905.292 48.0426C905.431 47.8636 905.624 47.7074 905.871 47.5739C906.118 47.4375 906.445 47.3693 906.851 47.3693C907.38 47.3693 907.851 47.5028 908.266 47.7699C908.681 48.0369 909.006 48.4219 909.242 48.9247C909.481 49.4276 909.6 50.0327 909.6 50.7401C909.6 51.4474 909.482 52.054 909.246 52.5597C909.01 53.0625 908.687 53.4503 908.275 53.723C907.863 53.9929 907.393 54.1278 906.864 54.1278C906.466 54.1278 906.141 54.0611 905.888 53.9276C905.638 53.794 905.442 53.6378 905.3 53.4588C905.158 53.2798 905.049 53.1207 904.972 52.9815H904.895V56.4545H903.621ZM904.87 50.7273C904.87 51.1875 904.937 51.5909 905.07 51.9375C905.204 52.2841 905.397 52.5554 905.65 52.7514C905.902 52.9446 906.212 53.0412 906.579 53.0412C906.959 53.0412 907.277 52.9403 907.533 52.7386C907.789 52.5341 907.982 52.2571 908.113 51.9077C908.246 51.5582 908.313 51.1648 908.313 50.7273C908.313 50.2955 908.248 49.9077 908.117 49.5639C907.989 49.2202 907.796 48.9489 907.537 48.75C907.282 48.5511 906.962 48.4517 906.579 48.4517C906.209 48.4517 905.897 48.5469 905.641 48.7372C905.388 48.9276 905.196 49.1932 905.066 49.5341C904.935 49.875 904.87 50.2727 904.87 50.7273ZM913.284 54.1321C912.64 54.1321 912.084 53.9943 911.618 53.7188C911.155 53.4403 910.797 53.0497 910.544 52.5469C910.294 52.0412 910.169 51.4489 910.169 50.7699C910.169 50.0994 910.294 49.5085 910.544 48.9972C910.797 48.4858 911.15 48.0866 911.601 47.7997C912.056 47.5128 912.587 47.3693 913.195 47.3693C913.564 47.3693 913.922 47.4304 914.269 47.5526C914.615 47.6747 914.927 47.8665 915.202 48.1278C915.478 48.3892 915.695 48.7287 915.854 49.1463C916.013 49.5611 916.093 50.0653 916.093 50.6591V51.1108H910.89V50.1562H914.844C914.844 49.821 914.776 49.5241 914.64 49.2656C914.503 49.0043 914.311 48.7983 914.064 48.6477C913.82 48.4972 913.533 48.4219 913.204 48.4219C912.846 48.4219 912.533 48.5099 912.266 48.6861C912.002 48.8594 911.797 49.0866 911.652 49.3679C911.51 49.6463 911.439 49.9489 911.439 50.2756V51.0213C911.439 51.4588 911.516 51.831 911.669 52.1378C911.826 52.4446 912.043 52.679 912.321 52.8409C912.6 53 912.925 53.0795 913.297 53.0795C913.539 53.0795 913.759 53.0455 913.958 52.9773C914.157 52.9062 914.329 52.8011 914.473 52.6619C914.618 52.5227 914.729 52.3509 914.806 52.1463L916.012 52.3636C915.915 52.7187 915.742 53.0298 915.492 53.2969C915.245 53.5611 914.934 53.767 914.559 53.9148C914.186 54.0597 913.762 54.1321 913.284 54.1321ZM918.217 50.1136V54H916.942V47.4545H918.165V48.5199H918.246C918.397 48.1733 918.633 47.8949 918.954 47.6847C919.278 47.4744 919.685 47.3693 920.177 47.3693C920.623 47.3693 921.013 47.4631 921.349 47.6506C921.684 47.8352 921.944 48.1108 922.128 48.4773C922.313 48.8437 922.405 49.2969 922.405 49.8366V54H921.131V49.9901C921.131 49.5156 921.008 49.1449 920.761 48.8778C920.513 48.608 920.174 48.473 919.742 48.473C919.447 48.473 919.184 48.5369 918.954 48.6648C918.727 48.7926 918.546 48.9801 918.413 49.2273C918.282 49.4716 918.217 49.767 918.217 50.1136ZM929.217 47.4545V48.4773H925.642V47.4545H929.217ZM926.601 45.8864H927.875V52.0781C927.875 52.3253 927.912 52.5114 927.986 52.6364C928.06 52.7585 928.155 52.8423 928.271 52.8878C928.391 52.9304 928.52 52.9517 928.659 52.9517C928.762 52.9517 928.851 52.9446 928.928 52.9304C929.004 52.9162 929.064 52.9048 929.107 52.8963L929.337 53.9489C929.263 53.9773 929.158 54.0057 929.021 54.0341C928.885 54.0653 928.715 54.0824 928.51 54.0852C928.175 54.0909 927.862 54.0312 927.573 53.9062C927.283 53.7812 927.048 53.5881 926.869 53.3267C926.69 53.0653 926.601 52.7372 926.601 52.3423V45.8864ZM931.968 54.1449C931.553 54.1449 931.178 54.0682 930.843 53.9148C930.508 53.7585 930.242 53.5327 930.046 53.2372C929.853 52.9418 929.756 52.5795 929.756 52.1506C929.756 51.7812 929.827 51.4773 929.969 51.2386C930.111 51 930.303 50.8111 930.544 50.6719C930.786 50.5327 931.056 50.4276 931.354 50.3565C931.652 50.2855 931.956 50.2315 932.266 50.1946C932.658 50.1491 932.976 50.1122 933.221 50.0838C933.465 50.0526 933.642 50.0028 933.753 49.9347C933.864 49.8665 933.919 49.7557 933.919 49.6023V49.5724C933.919 49.2003 933.814 48.9119 933.604 48.7074C933.397 48.5028 933.087 48.4006 932.675 48.4006C932.246 48.4006 931.908 48.4957 931.661 48.6861C931.417 48.8736 931.248 49.0824 931.154 49.3125L929.956 49.0398C930.098 48.642 930.306 48.321 930.579 48.0767C930.854 47.8295 931.171 47.6506 931.529 47.5398C931.887 47.4261 932.263 47.3693 932.658 47.3693C932.919 47.3693 933.196 47.4006 933.489 47.4631C933.785 47.5227 934.06 47.6335 934.316 47.7955C934.574 47.9574 934.786 48.1889 934.951 48.4901C935.115 48.7884 935.198 49.1761 935.198 49.6534V54H933.954V53.1051H933.902C933.82 53.2699 933.696 53.4318 933.532 53.5909C933.367 53.75 933.155 53.8821 932.897 53.9872C932.638 54.0923 932.329 54.1449 931.968 54.1449ZM932.245 53.1222C932.597 53.1222 932.898 53.0526 933.148 52.9134C933.401 52.7741 933.593 52.5923 933.723 52.3679C933.857 52.1406 933.924 51.8977 933.924 51.6392V50.7955C933.878 50.8409 933.79 50.8835 933.66 50.9233C933.532 50.9602 933.385 50.9929 933.221 51.0213C933.056 51.0469 932.895 51.071 932.739 51.0938C932.583 51.1136 932.452 51.1307 932.347 51.1449C932.1 51.1761 931.874 51.2287 931.669 51.3026C931.468 51.3764 931.306 51.483 931.184 51.6222C931.064 51.7585 931.005 51.9403 931.005 52.1676C931.005 52.483 931.121 52.7216 931.354 52.8835C931.587 53.0426 931.884 53.1222 932.245 53.1222ZM936.433 54V45.2727H937.707V48.5156H937.784C937.858 48.3793 937.964 48.2216 938.104 48.0426C938.243 47.8636 938.436 47.7074 938.683 47.5739C938.93 47.4375 939.257 47.3693 939.663 47.3693C940.192 47.3693 940.663 47.5028 941.078 47.7699C941.493 48.0369 941.818 48.4219 942.054 48.9247C942.293 49.4276 942.412 50.0327 942.412 50.7401C942.412 51.4474 942.294 52.054 942.058 52.5597C941.822 53.0625 941.499 53.4503 941.087 53.723C940.675 53.9929 940.205 54.1278 939.676 54.1278C939.278 54.1278 938.953 54.0611 938.7 53.9276C938.45 53.794 938.254 53.6378 938.112 53.4588C937.97 53.2798 937.861 53.1207 937.784 52.9815H937.678V54H936.433ZM937.682 50.7273C937.682 51.1875 937.749 51.5909 937.882 51.9375C938.016 52.2841 938.209 52.5554 938.462 52.7514C938.714 52.9446 939.024 53.0412 939.391 53.0412C939.771 53.0412 940.089 52.9403 940.345 52.7386C940.601 52.5341 940.794 52.2571 940.925 51.9077C941.058 51.5582 941.125 51.1648 941.125 50.7273C941.125 50.2955 941.06 49.9077 940.929 49.5639C940.801 49.2202 940.608 48.9489 940.349 48.75C940.094 48.5511 939.774 48.4517 939.391 48.4517C939.021 48.4517 938.709 48.5469 938.453 48.7372C938.2 48.9276 938.009 49.1932 937.878 49.5341C937.747 49.875 937.682 50.2727 937.682 50.7273ZM948.183 49.0526L947.029 49.2571C946.98 49.1094 946.904 48.9687 946.799 48.8352C946.696 48.7017 946.557 48.5923 946.381 48.5071C946.205 48.4219 945.985 48.3793 945.72 48.3793C945.36 48.3793 945.058 48.4602 944.817 48.6222C944.576 48.7812 944.455 48.9872 944.455 49.2401C944.455 49.4588 944.536 49.6349 944.698 49.7685C944.86 49.902 945.121 50.0114 945.482 50.0966L946.522 50.3352C947.124 50.4744 947.573 50.6889 947.868 50.9787C948.164 51.2685 948.311 51.6449 948.311 52.108C948.311 52.5 948.198 52.8494 947.97 53.1562C947.746 53.4602 947.432 53.6989 947.029 53.8722C946.628 54.0455 946.164 54.1321 945.635 54.1321C944.902 54.1321 944.304 53.9759 943.841 53.6634C943.378 53.348 943.094 52.9006 942.989 52.321L944.22 52.1335C944.297 52.4545 944.455 52.6974 944.693 52.8622C944.932 53.0241 945.243 53.1051 945.627 53.1051C946.044 53.1051 946.378 53.0185 946.628 52.8452C946.878 52.669 947.003 52.4545 947.003 52.2017C947.003 51.9972 946.926 51.8253 946.773 51.6861C946.622 51.5469 946.391 51.4418 946.078 51.3707L944.97 51.1278C944.36 50.9886 943.908 50.767 943.615 50.4631C943.326 50.1591 943.181 49.7741 943.181 49.3082C943.181 48.9219 943.289 48.5838 943.505 48.294C943.72 48.0043 944.019 47.7784 944.399 47.6165C944.78 47.4517 945.216 47.3693 945.708 47.3693C946.415 47.3693 946.972 47.5227 947.378 47.8295C947.784 48.1335 948.053 48.5412 948.183 49.0526ZM950.806 52.8068L950.742 53.2713C950.699 53.6122 950.627 53.9673 950.525 54.3366C950.425 54.7088 950.322 55.054 950.214 55.3722C950.108 55.6903 950.022 55.9432 949.954 56.1307H949.05C949.087 55.9545 949.138 55.7159 949.204 55.4148C949.269 55.1165 949.333 54.7827 949.395 54.4134C949.458 54.044 949.505 53.6676 949.536 53.2841L949.579 52.8068H950.806ZM956.417 54.1449C956.003 54.1449 955.628 54.0682 955.292 53.9148C954.957 53.7585 954.691 53.5327 954.495 53.2372C954.302 52.9418 954.206 52.5795 954.206 52.1506C954.206 51.7812 954.277 51.4773 954.419 51.2386C954.561 51 954.753 50.8111 954.994 50.6719C955.235 50.5327 955.505 50.4276 955.804 50.3565C956.102 50.2855 956.406 50.2315 956.716 50.1946C957.108 50.1491 957.426 50.1122 957.67 50.0838C957.914 50.0526 958.092 50.0028 958.203 49.9347C958.314 49.8665 958.369 49.7557 958.369 49.6023V49.5724C958.369 49.2003 958.264 48.9119 958.054 48.7074C957.846 48.5028 957.537 48.4006 957.125 48.4006C956.696 48.4006 956.358 48.4957 956.11 48.6861C955.866 48.8736 955.697 49.0824 955.603 49.3125L954.406 49.0398C954.548 48.642 954.755 48.321 955.028 48.0767C955.304 47.8295 955.62 47.6506 955.978 47.5398C956.336 47.4261 956.713 47.3693 957.108 47.3693C957.369 47.3693 957.646 47.4006 957.939 47.4631C958.234 47.5227 958.51 47.6335 958.765 47.7955C959.024 47.9574 959.235 48.1889 959.4 48.4901C959.565 48.7884 959.647 49.1761 959.647 49.6534V54H958.403V53.1051H958.352C958.27 53.2699 958.146 53.4318 957.981 53.5909C957.816 53.75 957.605 53.8821 957.346 53.9872C957.088 54.0923 956.778 54.1449 956.417 54.1449ZM956.694 53.1222C957.047 53.1222 957.348 53.0526 957.598 52.9134C957.851 52.7741 958.042 52.5923 958.173 52.3679C958.306 52.1406 958.373 51.8977 958.373 51.6392V50.7955C958.328 50.8409 958.24 50.8835 958.109 50.9233C957.981 50.9602 957.835 50.9929 957.67 51.0213C957.505 51.0469 957.345 51.071 957.189 51.0938C957.032 51.1136 956.902 51.1307 956.797 51.1449C956.549 51.1761 956.324 51.2287 956.119 51.3026C955.917 51.3764 955.755 51.483 955.633 51.6222C955.514 51.7585 955.454 51.9403 955.454 52.1676C955.454 52.483 955.571 52.7216 955.804 52.8835C956.037 53.0426 956.333 53.1222 956.694 53.1222ZM962.055 50.1136V54H960.78V47.4545H962.003V48.5199H962.084C962.235 48.1733 962.471 47.8949 962.792 47.6847C963.116 47.4744 963.523 47.3693 964.015 47.3693C964.461 47.3693 964.852 47.4631 965.187 47.6506C965.522 47.8352 965.782 48.1108 965.967 48.4773C966.151 48.8437 966.244 49.2969 966.244 49.8366V54H964.969V49.9901C964.969 49.5156 964.846 49.1449 964.599 48.8778C964.352 48.608 964.012 48.473 963.58 48.473C963.285 48.473 963.022 48.5369 962.792 48.6648C962.565 48.7926 962.384 48.9801 962.251 49.2273C962.12 49.4716 962.055 49.767 962.055 50.1136ZM969.839 54.1278C969.31 54.1278 968.839 53.9929 968.424 53.723C968.012 53.4503 967.688 53.0625 967.452 52.5597C967.219 52.054 967.103 51.4474 967.103 50.7401C967.103 50.0327 967.221 49.4276 967.457 48.9247C967.695 48.4219 968.022 48.0369 968.437 47.7699C968.851 47.5028 969.322 47.3693 969.847 47.3693C970.253 47.3693 970.58 47.4375 970.827 47.5739C971.077 47.7074 971.27 47.8636 971.407 48.0426C971.546 48.2216 971.654 48.3793 971.731 48.5156H971.807V45.2727H973.082V54H971.837V52.9815H971.731C971.654 53.1207 971.543 53.2798 971.398 53.4588C971.256 53.6378 971.06 53.794 970.81 53.9276C970.56 54.0611 970.236 54.1278 969.839 54.1278ZM970.12 53.0412C970.486 53.0412 970.796 52.9446 971.049 52.7514C971.305 52.5554 971.498 52.2841 971.628 51.9375C971.762 51.5909 971.829 51.1875 971.829 50.7273C971.829 50.2727 971.763 49.875 971.633 49.5341C971.502 49.1932 971.31 48.9276 971.057 48.7372C970.805 48.5469 970.492 48.4517 970.12 48.4517C969.736 48.4517 969.417 48.5511 969.161 48.75C968.905 48.9489 968.712 49.2202 968.582 49.5639C968.454 49.9077 968.39 50.2955 968.39 50.7273C968.39 51.1648 968.455 51.5582 968.586 51.9077C968.716 52.2571 968.91 52.5341 969.165 52.7386C969.424 52.9403 969.742 53.0412 970.12 53.0412ZM990.846 54H989.449L992.589 45.2727H994.11L997.251 54H995.853L993.386 46.858H993.318L990.846 54ZM991.081 50.5824H995.615V51.6903H991.081V50.5824ZM997.845 54V47.4545H999.077V48.4943H999.145C999.264 48.142 999.474 47.8651 999.775 47.6634C1000.08 47.4588 1000.42 47.3565 1000.81 47.3565C1000.89 47.3565 1000.98 47.3594 1001.09 47.3651C1001.2 47.3707 1001.29 47.3778 1001.35 47.3864V48.6051C1001.3 48.5909 1001.21 48.5753 1001.08 48.5582C1000.94 48.5384 1000.81 48.5284 1000.68 48.5284C1000.38 48.5284 1000.11 48.5923 999.878 48.7202C999.645 48.8452 999.46 49.0199 999.324 49.2443C999.187 49.4659 999.119 49.7187 999.119 50.0028V54H997.845ZM1004.41 54.1321C1003.78 54.1321 1003.23 53.9886 1002.77 53.7017C1002.32 53.4119 1001.97 53.0128 1001.72 52.5043C1001.48 51.9957 1001.36 51.4134 1001.36 50.7571C1001.36 50.0923 1001.48 49.5057 1001.73 48.9972C1001.98 48.4858 1002.34 48.0866 1002.79 47.7997C1003.24 47.5128 1003.78 47.3693 1004.4 47.3693C1004.89 47.3693 1005.34 47.4616 1005.73 47.6463C1006.12 47.8281 1006.43 48.0838 1006.67 48.4134C1006.91 48.7429 1007.05 49.1278 1007.1 49.5682H1005.86C1005.79 49.2614 1005.63 48.9972 1005.39 48.7756C1005.15 48.554 1004.82 48.4432 1004.42 48.4432C1004.06 48.4432 1003.75 48.5369 1003.48 48.7244C1003.22 48.9091 1003.01 49.1733 1002.87 49.517C1002.72 49.858 1002.65 50.2614 1002.65 50.7273C1002.65 51.2045 1002.72 51.6165 1002.86 51.9631C1003.01 52.3097 1003.21 52.5781 1003.48 52.7685C1003.74 52.9588 1004.06 53.054 1004.42 53.054C1004.66 53.054 1004.88 53.0099 1005.07 52.9219C1005.27 52.831 1005.44 52.7017 1005.57 52.5341C1005.71 52.3665 1005.8 52.1648 1005.86 51.929H1007.1C1007.05 52.3523 1006.91 52.7301 1006.68 53.0625C1006.45 53.3949 1006.15 53.6562 1005.76 53.8466C1005.38 54.0369 1004.93 54.1321 1004.41 54.1321ZM1009.17 50.1136V54H1007.9V45.2727H1009.15V48.5199H1009.23C1009.39 48.1676 1009.62 47.8878 1009.94 47.6804C1010.25 47.473 1010.67 47.3693 1011.17 47.3693C1011.62 47.3693 1012.01 47.4616 1012.35 47.6463C1012.69 47.831 1012.95 48.1065 1013.13 48.473C1013.32 48.8366 1013.42 49.2912 1013.42 49.8366V54H1012.14V49.9901C1012.14 49.5099 1012.02 49.1378 1011.77 48.8736C1011.52 48.6065 1011.18 48.473 1010.74 48.473C1010.44 48.473 1010.17 48.5369 1009.93 48.6648C1009.69 48.7926 1009.51 48.9801 1009.37 49.2273C1009.24 49.4716 1009.17 49.767 1009.17 50.1136ZM1017.53 50.3778C1017.53 49.3097 1017.67 48.3267 1017.96 47.429C1018.24 46.5312 1018.65 45.7031 1019.19 44.9446H1020.36C1020.14 45.2259 1019.95 45.571 1019.77 45.9801C1019.59 46.3892 1019.43 46.8381 1019.29 47.3267C1019.15 47.8125 1019.05 48.3168 1018.97 48.8395C1018.89 49.3594 1018.86 49.8722 1018.86 50.3778C1018.86 51.054 1018.92 51.7386 1019.06 52.4318C1019.19 53.125 1019.37 53.7685 1019.6 54.3622C1019.82 54.956 1020.08 55.4403 1020.36 55.8153H1019.19C1018.65 55.0568 1018.24 54.2287 1017.96 53.331C1017.67 52.4332 1017.53 51.4489 1017.53 50.3778ZM1021.24 54V45.2727H1022.51V48.5156H1022.59C1022.66 48.3793 1022.77 48.2216 1022.91 48.0426C1023.05 47.8636 1023.24 47.7074 1023.49 47.5739C1023.73 47.4375 1024.06 47.3693 1024.47 47.3693C1025 47.3693 1025.47 47.5028 1025.88 47.7699C1026.3 48.0369 1026.62 48.4219 1026.86 48.9247C1027.1 49.4276 1027.22 50.0327 1027.22 50.7401C1027.22 51.4474 1027.1 52.054 1026.86 52.5597C1026.63 53.0625 1026.3 53.4503 1025.89 53.723C1025.48 53.9929 1025.01 54.1278 1024.48 54.1278C1024.08 54.1278 1023.76 54.0611 1023.5 53.9276C1023.25 53.794 1023.06 53.6378 1022.92 53.4588C1022.77 53.2798 1022.66 53.1207 1022.59 52.9815H1022.48V54H1021.24ZM1022.49 50.7273C1022.49 51.1875 1022.55 51.5909 1022.69 51.9375C1022.82 52.2841 1023.01 52.5554 1023.27 52.7514C1023.52 52.9446 1023.83 53.0412 1024.19 53.0412C1024.57 53.0412 1024.89 52.9403 1025.15 52.7386C1025.4 52.5341 1025.6 52.2571 1025.73 51.9077C1025.86 51.5582 1025.93 51.1648 1025.93 50.7273C1025.93 50.2955 1025.86 49.9077 1025.73 49.5639C1025.6 49.2202 1025.41 48.9489 1025.15 48.75C1024.9 48.5511 1024.58 48.4517 1024.19 48.4517C1023.82 48.4517 1023.51 48.5469 1023.26 48.7372C1023 48.9276 1022.81 49.1932 1022.68 49.5341C1022.55 49.875 1022.49 50.2727 1022.49 50.7273ZM1031.14 47.4545V48.4773H1027.56V47.4545H1031.14ZM1028.52 45.8864H1029.8V52.0781C1029.8 52.3253 1029.83 52.5114 1029.91 52.6364C1029.98 52.7585 1030.08 52.8423 1030.19 52.8878C1030.31 52.9304 1030.44 52.9517 1030.58 52.9517C1030.68 52.9517 1030.77 52.9446 1030.85 52.9304C1030.92 52.9162 1030.98 52.9048 1031.03 52.8963L1031.26 53.9489C1031.18 53.9773 1031.08 54.0057 1030.94 54.0341C1030.81 54.0653 1030.63 54.0824 1030.43 54.0852C1030.09 54.0909 1029.78 54.0312 1029.49 53.9062C1029.2 53.7812 1028.97 53.5881 1028.79 53.3267C1028.61 53.0653 1028.52 52.7372 1028.52 52.3423V45.8864ZM1033.4 54L1031.48 47.4545H1032.79L1034.08 52.2614H1034.14L1035.43 47.4545H1036.74L1038.02 52.2401H1038.09L1039.36 47.4545H1040.68L1038.75 54H1037.45L1036.13 49.2741H1036.03L1034.7 54H1033.4ZM1043.77 50.3778C1043.77 51.4489 1043.63 52.4332 1043.35 53.331C1043.07 54.2287 1042.66 55.0568 1042.12 55.8153H1040.95C1041.16 55.5341 1041.36 55.1889 1041.54 54.7798C1041.72 54.3707 1041.88 53.9233 1042.02 53.4375C1042.15 52.9489 1042.26 52.4432 1042.34 51.9205C1042.41 51.3977 1042.45 50.8835 1042.45 50.3778C1042.45 49.7045 1042.38 49.0213 1042.25 48.3281C1042.12 47.6349 1041.94 46.9915 1041.71 46.3977C1041.48 45.804 1041.23 45.3196 1040.95 44.9446H1042.12C1042.66 45.7031 1043.07 46.5312 1043.35 47.429C1043.63 48.3267 1043.77 49.3097 1043.77 50.3778ZM935.824 69V60.2727H936.829V63.4943H936.915C936.988 63.3807 937.091 63.2358 937.221 63.0597C937.355 62.8807 937.545 62.7216 937.792 62.5824C938.042 62.4403 938.38 62.3693 938.807 62.3693C939.358 62.3693 939.843 62.5071 940.264 62.7827C940.684 63.0582 941.013 63.4489 941.248 63.9545C941.484 64.4602 941.602 65.0568 941.602 65.7443C941.602 66.4375 941.484 67.0384 941.248 67.5469C941.013 68.0526 940.686 68.4446 940.268 68.723C939.851 68.9986 939.369 69.1364 938.824 69.1364C938.403 69.1364 938.067 69.0668 937.814 68.9276C937.561 68.7855 937.366 68.625 937.23 68.446C937.093 68.2642 936.988 68.1136 936.915 67.9943H936.795V69H935.824ZM936.812 65.7273C936.812 66.2216 936.885 66.6577 937.03 67.0355C937.174 67.4105 937.386 67.7045 937.665 67.9176C937.943 68.1278 938.284 68.233 938.687 68.233C939.108 68.233 939.459 68.1222 939.74 67.9006C940.024 67.6761 940.237 67.375 940.379 66.9972C940.524 66.6165 940.596 66.1932 940.596 65.7273C940.596 65.267 940.525 64.8523 940.383 64.483C940.244 64.1108 940.032 63.8168 939.748 63.6009C939.467 63.3821 939.113 63.2727 938.687 63.2727C938.278 63.2727 937.934 63.3764 937.656 63.5838C937.378 63.7884 937.167 64.0753 937.025 64.4446C936.883 64.8111 936.812 65.2386 936.812 65.7273ZM942.99 71.4545C942.819 71.4545 942.667 71.4403 942.534 71.4119C942.4 71.3864 942.308 71.3608 942.257 71.3352L942.512 70.4489C942.757 70.5114 942.973 70.5341 943.16 70.517C943.348 70.5 943.514 70.4162 943.659 70.2656C943.806 70.1179 943.941 69.8778 944.064 69.5455L944.251 69.0341L941.831 62.4545H942.922L944.728 67.6705H944.797L946.603 62.4545H947.694L944.916 69.9545C944.791 70.2926 944.636 70.5724 944.451 70.794C944.267 71.0185 944.052 71.1847 943.808 71.2926C943.566 71.4006 943.294 71.4545 942.99 71.4545Z" fill="#B1CFFB" fill-opacity="0.5"/>
<path d="M950.509 69V60.2727H953.952C954.611 60.2727 955.174 60.3906 955.64 60.6264C956.109 60.8594 956.465 61.1903 956.709 61.6193C956.957 62.0455 957.08 62.5469 957.08 63.1236C957.08 63.7031 956.955 64.2017 956.705 64.6193C956.455 65.0341 956.093 65.3523 955.618 65.5739C955.147 65.7955 954.576 65.9062 953.905 65.9062H951.6V64.4233H953.607C953.959 64.4233 954.252 64.375 954.485 64.2784C954.718 64.1818 954.891 64.0369 955.005 63.8438C955.121 63.6506 955.18 63.4105 955.18 63.1236C955.18 62.8338 955.121 62.5895 955.005 62.3906C954.891 62.1918 954.716 62.0412 954.481 61.9389C954.248 61.8338 953.954 61.7812 953.599 61.7812H952.354V69H950.509ZM955.222 65.0284L957.391 69H955.354L953.232 65.0284H955.222ZM961.983 66.2131V62.4545H963.799V69H962.056V67.8111H961.988C961.84 68.1946 961.594 68.5028 961.25 68.7358C960.91 68.9687 960.493 69.0852 960.002 69.0852C959.564 69.0852 959.179 68.9858 958.847 68.7869C958.515 68.5881 958.255 68.3054 958.067 67.9389C957.883 67.5724 957.789 67.1335 957.786 66.6222V62.4545H959.601V66.2983C959.604 66.6847 959.708 66.9901 959.912 67.2145C960.117 67.4389 960.391 67.5511 960.735 67.5511C960.954 67.5511 961.158 67.5014 961.349 67.402C961.539 67.2997 961.692 67.1491 961.809 66.9503C961.928 66.7514 961.986 66.5057 961.983 66.2131ZM967.099 69.1065C966.602 69.1065 966.151 68.9787 965.748 68.723C965.347 68.4645 965.029 68.0852 964.793 67.5852C964.56 67.0824 964.444 66.4659 964.444 65.7358C964.444 64.9858 964.565 64.3622 964.806 63.8651C965.048 63.3651 965.369 62.9915 965.769 62.7443C966.173 62.4943 966.614 62.3693 967.095 62.3693C967.461 62.3693 967.766 62.4318 968.011 62.5568C968.258 62.679 968.457 62.8324 968.607 63.017C968.761 63.1989 968.877 63.3778 968.957 63.554H969.012V60.2727H970.823V69H969.033V67.9517H968.957C968.871 68.1335 968.751 68.3139 968.595 68.4929C968.441 68.669 968.241 68.8153 967.994 68.9318C967.749 69.0483 967.451 69.1065 967.099 69.1065ZM967.674 67.6619C967.967 67.6619 968.214 67.5824 968.416 67.4233C968.62 67.2614 968.776 67.0355 968.884 66.7457C968.995 66.456 969.05 66.1165 969.05 65.7273C969.05 65.3381 968.996 65 968.889 64.7131C968.781 64.4261 968.624 64.2045 968.42 64.0483C968.215 63.892 967.967 63.8139 967.674 63.8139C967.376 63.8139 967.124 63.8949 966.92 64.0568C966.715 64.2187 966.56 64.4432 966.455 64.7301C966.35 65.017 966.298 65.3494 966.298 65.7273C966.298 66.108 966.35 66.4446 966.455 66.7372C966.563 67.027 966.718 67.2543 966.92 67.419C967.124 67.581 967.376 67.6619 967.674 67.6619ZM971.752 69V62.4545H973.512V63.5966H973.58C973.699 63.1903 973.899 62.8835 974.181 62.6761C974.462 62.4659 974.786 62.3608 975.152 62.3608C975.243 62.3608 975.341 62.3665 975.446 62.3778C975.551 62.3892 975.644 62.4048 975.723 62.4247V64.0355C975.638 64.0099 975.52 63.9872 975.37 63.9673C975.219 63.9474 975.081 63.9375 974.956 63.9375C974.689 63.9375 974.451 63.9957 974.24 64.1122C974.033 64.2259 973.868 64.3849 973.746 64.5895C973.627 64.794 973.567 65.0298 973.567 65.2969V69H971.752ZM977.777 69.1236C977.359 69.1236 976.987 69.0511 976.66 68.9062C976.334 68.7585 976.075 68.5412 975.885 68.2543C975.697 67.9645 975.604 67.6037 975.604 67.1719C975.604 66.8082 975.67 66.5028 975.804 66.2557C975.937 66.0085 976.119 65.8097 976.349 65.6591C976.579 65.5085 976.841 65.3949 977.133 65.3182C977.429 65.2415 977.739 65.1875 978.062 65.1562C978.443 65.1165 978.75 65.0795 978.983 65.0455C979.216 65.0085 979.385 64.9545 979.49 64.8835C979.595 64.8125 979.648 64.7074 979.648 64.5682V64.5426C979.648 64.2727 979.562 64.0639 979.392 63.9162C979.224 63.7685 978.986 63.6946 978.676 63.6946C978.349 63.6946 978.089 63.767 977.896 63.9119C977.703 64.054 977.575 64.233 977.513 64.4489L975.834 64.3125C975.919 63.9148 976.087 63.571 976.337 63.2812C976.587 62.9886 976.909 62.7642 977.304 62.608C977.702 62.4489 978.162 62.3693 978.685 62.3693C979.048 62.3693 979.396 62.4119 979.729 62.4972C980.064 62.5824 980.361 62.7145 980.619 62.8935C980.881 63.0724 981.087 63.3026 981.237 63.5838C981.388 63.8622 981.463 64.196 981.463 64.5852V69H979.741V68.0923H979.69C979.585 68.2969 979.444 68.4773 979.268 68.6335C979.092 68.7869 978.881 68.9077 978.633 68.9957C978.386 69.081 978.101 69.1236 977.777 69.1236ZM978.297 67.8707C978.564 67.8707 978.8 67.8182 979.004 67.7131C979.209 67.6051 979.369 67.4602 979.486 67.2784C979.602 67.0966 979.66 66.8906 979.66 66.6605V65.9659C979.604 66.0028 979.525 66.0369 979.426 66.0682C979.329 66.0966 979.22 66.1236 979.098 66.1491C978.976 66.1719 978.854 66.1932 978.731 66.2131C978.609 66.2301 978.498 66.2457 978.399 66.2599C978.186 66.2912 978 66.3409 977.841 66.4091C977.682 66.4773 977.558 66.5696 977.47 66.6861C977.382 66.7997 977.338 66.9418 977.338 67.1122C977.338 67.3594 977.427 67.5483 977.606 67.679C977.788 67.8068 978.018 67.8707 978.297 67.8707ZM983.952 67.1165L983.956 64.9389H984.221L986.317 62.4545H988.401L985.584 65.7443H985.154L983.952 67.1165ZM982.307 69V60.2727H984.123V69H982.307ZM986.398 69L984.472 66.1491L985.682 64.8665L988.525 69H986.398ZM994.174 64.321L992.512 64.4233C992.483 64.2812 992.422 64.1534 992.329 64.0398C992.235 63.9233 992.111 63.831 991.958 63.7628C991.807 63.6918 991.627 63.6562 991.417 63.6562C991.135 63.6562 990.898 63.7159 990.705 63.8352C990.512 63.9517 990.415 64.108 990.415 64.304C990.415 64.4602 990.478 64.5923 990.603 64.7003C990.728 64.8082 990.942 64.8949 991.246 64.9602L992.431 65.1989C993.067 65.3295 993.542 65.5398 993.854 65.8295C994.167 66.1193 994.323 66.5 994.323 66.9716C994.323 67.4006 994.196 67.777 993.944 68.1009C993.694 68.4247 993.35 68.6776 992.912 68.8594C992.478 69.0384 991.976 69.1278 991.408 69.1278C990.542 69.1278 989.851 68.9474 989.337 68.5866C988.826 68.223 988.526 67.7287 988.438 67.1037L990.223 67.0099C990.277 67.2741 990.408 67.4759 990.616 67.6151C990.823 67.7514 991.089 67.8196 991.412 67.8196C991.731 67.8196 991.986 67.7585 992.179 67.6364C992.375 67.5114 992.475 67.3509 992.478 67.1548C992.475 66.9901 992.405 66.8551 992.269 66.75C992.133 66.642 991.922 66.5597 991.638 66.5028L990.505 66.277C989.866 66.1491 989.39 65.9276 989.077 65.6122C988.768 65.2969 988.613 64.8949 988.613 64.4062C988.613 63.9858 988.726 63.6236 988.954 63.3196C989.184 63.0156 989.506 62.7812 989.921 62.6165C990.339 62.4517 990.827 62.3693 991.387 62.3693C992.214 62.3693 992.864 62.544 993.339 62.8935C993.816 63.2429 994.094 63.7187 994.174 64.321ZM996.717 65.2159V69H994.902V60.2727H996.666V63.6094H996.743C996.891 63.223 997.129 62.9205 997.459 62.7017C997.788 62.4801 998.202 62.3693 998.699 62.3693C999.153 62.3693 999.55 62.4688 999.888 62.6676C1000.23 62.8636 1000.49 63.1463 1000.68 63.5156C1000.87 63.8821 1000.96 64.321 1000.96 64.8324V69H999.146V65.1562C999.149 64.7528 999.047 64.4389 998.839 64.2145C998.635 63.9901 998.348 63.8778 997.979 63.8778C997.732 63.8778 997.513 63.9304 997.322 64.0355C997.135 64.1406 996.987 64.294 996.879 64.4957C996.774 64.6946 996.72 64.9347 996.717 65.2159ZM1003.74 61.794V60.2727H1010.91V61.794H1008.24V69H1006.41V61.794H1003.74ZM1010.81 69V62.4545H1012.57V63.5966H1012.64C1012.76 63.1903 1012.96 62.8835 1013.24 62.6761C1013.52 62.4659 1013.85 62.3608 1014.21 62.3608C1014.3 62.3608 1014.4 62.3665 1014.51 62.3778C1014.61 62.3892 1014.7 62.4048 1014.78 62.4247V64.0355C1014.7 64.0099 1014.58 63.9872 1014.43 63.9673C1014.28 63.9474 1014.14 63.9375 1014.02 63.9375C1013.75 63.9375 1013.51 63.9957 1013.3 64.1122C1013.09 64.2259 1012.93 64.3849 1012.81 64.5895C1012.69 64.794 1012.63 65.0298 1012.63 65.2969V69H1010.81ZM1015.16 69V62.4545H1016.97V69H1015.16ZM1016.07 61.6108C1015.8 61.6108 1015.57 61.5213 1015.38 61.3423C1015.18 61.1605 1015.09 60.9432 1015.09 60.6903C1015.09 60.4403 1015.18 60.2259 1015.38 60.0469C1015.57 59.8651 1015.8 59.7741 1016.07 59.7741C1016.34 59.7741 1016.57 59.8651 1016.76 60.0469C1016.95 60.2259 1017.05 60.4403 1017.05 60.6903C1017.05 60.9432 1016.95 61.1605 1016.76 61.3423C1016.57 61.5213 1016.34 61.6108 1016.07 61.6108ZM1017.86 71.4545V62.4545H1019.65V63.554H1019.73C1019.81 63.3778 1019.93 63.1989 1020.08 63.017C1020.23 62.8324 1020.43 62.679 1020.68 62.5568C1020.92 62.4318 1021.23 62.3693 1021.6 62.3693C1022.07 62.3693 1022.51 62.4943 1022.92 62.7443C1023.32 62.9915 1023.64 63.3651 1023.88 63.8651C1024.13 64.3622 1024.25 64.9858 1024.25 65.7358C1024.25 66.4659 1024.13 67.0824 1023.89 67.5852C1023.66 68.0852 1023.34 68.4645 1022.94 68.723C1022.54 68.9787 1022.09 69.1065 1021.59 69.1065C1021.24 69.1065 1020.94 69.0483 1020.69 68.9318C1020.45 68.8153 1020.25 68.669 1020.09 68.4929C1019.94 68.3139 1019.82 68.1335 1019.73 67.9517H1019.68V71.4545H1017.86ZM1019.64 65.7273C1019.64 66.1165 1019.69 66.456 1019.8 66.7457C1019.91 67.0355 1020.07 67.2614 1020.27 67.4233C1020.48 67.5824 1020.72 67.6619 1021.02 67.6619C1021.31 67.6619 1021.56 67.581 1021.77 67.419C1021.97 67.2543 1022.13 67.027 1022.23 66.7372C1022.34 66.4446 1022.39 66.108 1022.39 65.7273C1022.39 65.3494 1022.34 65.017 1022.24 64.7301C1022.13 64.4432 1021.98 64.2187 1021.77 64.0568C1021.57 63.8949 1021.31 63.8139 1021.02 63.8139C1020.72 63.8139 1020.47 63.892 1020.27 64.0483C1020.06 64.2045 1019.91 64.4261 1019.8 64.7131C1019.69 65 1019.64 65.3381 1019.64 65.7273ZM1026.76 69.1236C1026.34 69.1236 1025.97 69.0511 1025.64 68.9062C1025.32 68.7585 1025.06 68.5412 1024.87 68.2543C1024.68 67.9645 1024.59 67.6037 1024.59 67.1719C1024.59 66.8082 1024.65 66.5028 1024.79 66.2557C1024.92 66.0085 1025.1 65.8097 1025.33 65.6591C1025.56 65.5085 1025.82 65.3949 1026.12 65.3182C1026.41 65.2415 1026.72 65.1875 1027.04 65.1562C1027.43 65.1165 1027.73 65.0795 1027.97 65.0455C1028.2 65.0085 1028.37 64.9545 1028.47 64.8835C1028.58 64.8125 1028.63 64.7074 1028.63 64.5682V64.5426C1028.63 64.2727 1028.54 64.0639 1028.37 63.9162C1028.21 63.7685 1027.97 63.6946 1027.66 63.6946C1027.33 63.6946 1027.07 63.767 1026.88 63.9119C1026.69 64.054 1026.56 64.233 1026.5 64.4489L1024.82 64.3125C1024.9 63.9148 1025.07 63.571 1025.32 63.2812C1025.57 62.9886 1025.89 62.7642 1026.29 62.608C1026.68 62.4489 1027.14 62.3693 1027.67 62.3693C1028.03 62.3693 1028.38 62.4119 1028.71 62.4972C1029.05 62.5824 1029.34 62.7145 1029.6 62.8935C1029.86 63.0724 1030.07 63.3026 1030.22 63.5838C1030.37 63.8622 1030.45 64.196 1030.45 64.5852V69H1028.72V68.0923H1028.67C1028.57 68.2969 1028.43 68.4773 1028.25 68.6335C1028.07 68.7869 1027.86 68.9077 1027.62 68.9957C1027.37 69.081 1027.08 69.1236 1026.76 69.1236ZM1027.28 67.8707C1027.55 67.8707 1027.78 67.8182 1027.99 67.7131C1028.19 67.6051 1028.35 67.4602 1028.47 67.2784C1028.58 67.0966 1028.64 66.8906 1028.64 66.6605V65.9659C1028.59 66.0028 1028.51 66.0369 1028.41 66.0682C1028.31 66.0966 1028.2 66.1236 1028.08 66.1491C1027.96 66.1719 1027.84 66.1932 1027.71 66.2131C1027.59 66.2301 1027.48 66.2457 1027.38 66.2599C1027.17 66.2912 1026.98 66.3409 1026.82 66.4091C1026.66 66.4773 1026.54 66.5696 1026.45 66.6861C1026.36 66.7997 1026.32 66.9418 1026.32 67.1122C1026.32 67.3594 1026.41 67.5483 1026.59 67.679C1026.77 67.8068 1027 67.8707 1027.28 67.8707ZM1034.77 62.4545V63.8182H1030.83V62.4545H1034.77ZM1031.72 60.8864H1033.54V66.9886C1033.54 67.1562 1033.57 67.2869 1033.62 67.3807C1033.67 67.4716 1033.74 67.5355 1033.83 67.5724C1033.92 67.6094 1034.03 67.6278 1034.15 67.6278C1034.24 67.6278 1034.32 67.6207 1034.41 67.6065C1034.49 67.5895 1034.56 67.5767 1034.61 67.5682L1034.89 68.919C1034.8 68.9474 1034.67 68.9801 1034.51 69.017C1034.34 69.0568 1034.14 69.081 1033.91 69.0895C1033.47 69.1065 1033.09 69.0483 1032.76 68.9148C1032.43 68.7812 1032.17 68.5739 1031.99 68.2926C1031.81 68.0114 1031.72 67.6562 1031.72 67.2273V60.8864ZM1037.35 65.2159V69H1035.53V60.2727H1037.29V63.6094H1037.37C1037.52 63.223 1037.76 62.9205 1038.09 62.7017C1038.42 62.4801 1038.83 62.3693 1039.33 62.3693C1039.78 62.3693 1040.18 62.4688 1040.52 62.6676C1040.86 62.8636 1041.12 63.1463 1041.31 63.5156C1041.5 63.8821 1041.59 64.321 1041.59 64.8324V69H1039.77V65.1562C1039.78 64.7528 1039.68 64.4389 1039.47 64.2145C1039.26 63.9901 1038.98 63.8778 1038.61 63.8778C1038.36 63.8778 1038.14 63.9304 1037.95 64.0355C1037.76 64.1406 1037.62 64.294 1037.51 64.4957C1037.4 64.6946 1037.35 64.9347 1037.35 65.2159ZM1042.45 69V62.4545H1044.27V69H1042.45ZM1043.37 61.6108C1043.1 61.6108 1042.87 61.5213 1042.67 61.3423C1042.48 61.1605 1042.39 60.9432 1042.39 60.6903C1042.39 60.4403 1042.48 60.2259 1042.67 60.0469C1042.87 59.8651 1043.1 59.7741 1043.37 59.7741C1043.64 59.7741 1043.87 59.8651 1044.06 60.0469C1044.25 60.2259 1044.35 60.4403 1044.35 60.6903C1044.35 60.9432 1044.25 61.1605 1044.06 61.3423C1043.87 61.5213 1043.64 61.6108 1043.37 61.6108Z" fill="#B1CFFB" fill-opacity="0.8"/>
<g clip-path="url(#clip0_5_2)">
<path d="M982.499 45C982.098 45.9821 981.857 46.6245 981.411 47.5775C981.684 47.8673 982.02 48.2049 982.565 48.5861C981.979 48.345 981.579 48.1029 981.28 47.8516C980.71 49.0427 979.815 50.7393 978 54C979.427 53.1766 980.532 52.6689 981.563 52.4752C981.519 52.2849 981.494 52.079 981.495 51.8642L981.497 51.8185C981.52 50.9047 981.995 50.202 982.558 50.2497C983.122 50.2974 983.559 51.0773 983.537 51.9912C983.533 52.1631 983.513 52.3285 983.479 52.4819C984.499 52.6813 985.593 53.1877 987 54C986.723 53.4892 986.475 53.0288 986.238 52.5903C985.866 52.3015 985.477 51.9258 984.684 51.519C985.229 51.6605 985.619 51.8239 985.923 52.0064C983.519 47.5298 983.324 46.9349 982.499 45Z" fill="#B1CFFB" fill-opacity="0.5"/>
</g>
<defs>
<linearGradient id="paint0_linear_5_2" x1="206" y1="68" x2="206" y2="29" gradientUnits="userSpaceOnUse">
<stop stop-color="#B1CFFB" stop-opacity="0"/>
<stop offset="1" stop-color="#CEE2FF"/>
</linearGradient>
<clipPath id="clip0_5_2">
<rect width="9" height="9" fill="white" transform="translate(978 45)"/>
</clipPath>
</defs>
</svg>
